<svg width="24" height="24" viewBox="0 0 24 24" fill="none" xmlns="http://www.w3.org/2000/svg">
<path d="M14.7983 16.2315C14.4974 16.5324 13.9829 16.3193 13.9829 15.8938V13.7033C13.9829 13.4395 13.769 13.2257 13.5052 13.2257H5.9321C5.67108 13.2257 5.45839 13.0162 5.4545 12.7552L5.4401 11.7903C5.43612 11.5237 5.65111 11.3055 5.9177 11.3055H13.5052C13.769 11.3055 13.9829 11.0917 13.9829 10.8279V8.647C13.9829 8.22146 14.4974 8.00834 14.7983 8.30925L18.4216 11.9326C18.6082 12.1192 18.6082 12.4216 18.4216 12.6081L14.7983 16.2315Z" fill="url(#paint0_linear_1_744)"/>
<defs>
<linearGradient id="paint0_linear_1_744" x1="5.43286" y1="12.2704" x2="18.7594" y2="12.2704" gradientUnits="userSpaceOnUse">
<stop stop-color="#4776E6"/>
<stop offset="1" stop-color="#8E54E9"/>
</linearGradient>
</defs>
</svg>
