<svg width="50" height="50" viewBox="0 0 50 50" fill="none" xmlns="http://www.w3.org/2000/svg">
<circle opacity="0.3" cx="25" cy="25" r="24.5" stroke="white"/>
<g clip-path="url(#clip0_4019_1143)">
<g clip-path="url(#clip1_4019_1143)">
<path fill-rule="evenodd" clip-rule="evenodd" d="M28.003 17C28.747 17 29.533 17.26 30.253 17.547L30.78 17.763C32.04 18.291 32.748 19.399 33.297 20.616C34.188 22.591 34.807 25.224 35.021 27.226C35.123 28.176 35.148 29.132 34.965 29.775C34.768 30.462 34.098 30.948 33.447 31.33L33.125 31.513L32.791 31.699C32.619 31.795 32.442 31.89 32.266 31.983L31.744 32.253L31.027 32.61L30.45 32.894C30.3321 32.9576 30.2027 32.9968 30.0694 33.0094C29.936 33.022 29.8015 33.0077 29.6738 32.9673C29.5462 32.9269 29.4279 32.8613 29.326 32.7743C29.2242 32.6874 29.1408 32.5808 29.0809 32.461C29.0211 32.3413 28.9858 32.2107 28.9774 32.077C28.9689 31.9433 28.9874 31.8094 29.0317 31.683C29.076 31.5566 29.1452 31.4404 29.2353 31.3413C29.3254 31.2422 29.4344 31.1622 29.556 31.106L30.346 30.716L29.766 30.107C28.376 30.677 26.739 31 25 31C23.261 31 21.624 30.678 20.234 30.107L19.654 30.715L20.447 31.105C20.5645 31.1637 20.6694 31.245 20.7555 31.3442C20.8416 31.4434 20.9074 31.5586 20.949 31.6832C20.9906 31.8078 21.0072 31.9394 20.9979 32.0705C20.9887 32.2015 20.9537 32.3295 20.895 32.447C20.8363 32.5645 20.755 32.6694 20.6558 32.7555C20.5566 32.8416 20.4414 32.9073 20.3168 32.9489C20.0651 33.033 19.7904 33.0136 19.553 32.895L19.009 32.625C18.607 32.425 18.204 32.227 17.806 32.018L16.878 31.513L16.557 31.33C15.906 30.948 15.235 30.462 15.039 29.775C14.855 29.132 14.881 28.177 14.982 27.225C15.196 25.224 15.815 22.591 16.706 20.616C17.255 19.399 17.963 18.291 19.223 17.763C20.059 17.413 21.072 17 22 17C22.603 17 23.077 17.555 22.99 18.147C23.6555 18.0485 24.3273 17.9994 25 18C25.691 18 26.366 18.05 27.014 18.148C26.9947 18.006 27.0059 17.8615 27.0466 17.7241C27.0874 17.5867 27.1568 17.4595 27.2504 17.351C27.344 17.2425 27.4596 17.1551 27.5895 17.0946C27.7194 17.034 27.8597 17.0018 28.003 17ZM21.75 23.5C21.2859 23.5 20.8408 23.6844 20.5126 24.0126C20.1844 24.3408 20 24.7859 20 25.25C20 25.7141 20.1844 26.1592 20.5126 26.4874C20.8408 26.8156 21.2859 27 21.75 27C22.2141 27 22.6593 26.8156 22.9875 26.4874C23.3156 26.1592 23.5 25.7141 23.5 25.25C23.5 24.7859 23.3156 24.3408 22.9875 24.0126C22.6593 23.6844 22.2141 23.5 21.75 23.5ZM28.25 23.5C27.7859 23.5 27.3408 23.6844 27.0126 24.0126C26.6844 24.3408 26.5 24.7859 26.5 25.25C26.5 25.7141 26.6844 26.1592 27.0126 26.4874C27.3408 26.8156 27.7859 27 28.25 27C28.7141 27 29.1593 26.8156 29.4875 26.4874C29.8156 26.1592 30 25.7141 30 25.25C30 24.7859 29.8156 24.3408 29.4875 24.0126C29.1593 23.6844 28.7141 23.5 28.25 23.5Z" fill="white"/>
</g>
</g>
<defs>
<clipPath id="clip0_4019_1143">
<rect width="24" height="24" fill="white" transform="translate(13 13)"/>
</clipPath>
<clipPath id="clip1_4019_1143">
<rect width="24" height="24" fill="white" transform="translate(13 13)"/>
</clipPath>
</defs>
</svg>
