<svg width="11" height="13" viewBox="0 0 11 13" fill="none" xmlns="http://www.w3.org/2000/svg">
<path d="M4.99929 0.03125L0.987793 6.30775L5.52479 8.53775L9.98979 6.30575L6.04929 0.03125H4.99929ZM5.02279 1.84975V4.02525L3.06579 4.91325L5.02279 1.84975ZM6.02279 1.86975L7.93179 4.90975L6.02279 4.03375V1.86975ZM5.02279 5.12325V7.17675L2.85079 6.10825L5.02279 5.12325ZM6.02279 5.13475L8.14579 6.10975L6.02279 7.17025V5.13475ZM1.02279 7.28725V8.54725L4.98679 12.9688H6.05879L10.0228 8.54675V7.28675L5.52279 9.59375L1.02279 7.28725ZM3.28329 9.57025L5.02279 10.4618V11.5098L3.28329 9.57025ZM7.76229 9.57025L6.02279 11.5098V10.4618L7.76229 9.57025Z" fill="url(#paint0_linear_1_292)"/>
<defs>
<linearGradient id="paint0_linear_1_292" x1="0.987793" y1="6.5" x2="10.0228" y2="6.5" gradientUnits="userSpaceOnUse">
<stop stop-color="#4776E6"/>
<stop offset="1" stop-color="#8E54E9"/>
</linearGradient>
</defs>
</svg>
