<svg width="52" height="52" viewBox="0 0 52 52" fill="none" xmlns="http://www.w3.org/2000/svg">
<circle cx="26" cy="26" r="25" fill="url(#paint0_linear_1_1071)" fill-opacity="0.2" stroke="url(#paint1_linear_1_1071)" stroke-width="2"/>
<path d="M17 20.7263C17 20.4392 17.1141 20.1638 17.3171 19.9608C17.5201 19.7578 17.7955 19.6437 18.0826 19.6437H33.9602C34.2473 19.6437 34.5227 19.7578 34.7257 19.9608C34.9287 20.1638 35.0428 20.4392 35.0428 20.7263C35.0428 21.0134 34.9287 21.2888 34.7257 21.4918C34.5227 21.6948 34.2473 21.8089 33.9602 21.8089H18.0826C17.7955 21.8089 17.5201 21.6948 17.3171 21.4918C17.1141 21.2888 17 21.0134 17 20.7263ZM19.8868 26.5C19.8868 26.2129 20.0009 25.9375 20.2039 25.7345C20.4069 25.5315 20.6823 25.4174 20.9694 25.4174H31.0733C31.3605 25.4174 31.6358 25.5315 31.8388 25.7345C32.0419 25.9375 32.1559 26.2129 32.1559 26.5C32.1559 26.7871 32.0419 27.0625 31.8388 27.2655C31.6358 27.4685 31.3605 27.5825 31.0733 27.5825H20.9694C20.6823 27.5825 20.4069 27.4685 20.2039 27.2655C20.0009 27.0625 19.8868 26.7871 19.8868 26.5ZM22.7737 32.2737C22.7737 31.9865 22.8877 31.7112 23.0908 31.5082C23.2938 31.3052 23.5691 31.1911 23.8562 31.1911H28.1865C28.4736 31.1911 28.749 31.3052 28.952 31.5082C29.155 31.7112 29.2691 31.9865 29.2691 32.2737C29.2691 32.5608 29.155 32.8361 28.952 33.0392C28.749 33.2422 28.4736 33.3562 28.1865 33.3562H23.8562C23.5691 33.3562 23.2938 33.2422 23.0908 33.0392C22.8877 32.8361 22.7737 32.5608 22.7737 32.2737Z" fill="url(#paint2_linear_1_1071)"/>
<defs>
<linearGradient id="paint0_linear_1_1071" x1="0" y1="26" x2="52" y2="26" gradientUnits="userSpaceOnUse">
<stop stop-color="#4776E6"/>
<stop offset="1" stop-color="#8E54E9"/>
</linearGradient>
<linearGradient id="paint1_linear_1_1071" x1="0" y1="26" x2="52" y2="26" gradientUnits="userSpaceOnUse">
<stop stop-color="#4776E6"/>
<stop offset="1" stop-color="#8E54E9"/>
</linearGradient>
<linearGradient id="paint2_linear_1_1071" x1="17" y1="26.5" x2="35.0428" y2="26.5" gradientUnits="userSpaceOnUse">
<stop stop-color="#4776E6"/>
<stop offset="1" stop-color="#8E54E9"/>
</linearGradient>
</defs>
</svg>
