<svg width="163" height="62" viewBox="0 0 163 62" fill="none" xmlns="http://www.w3.org/2000/svg">
<g clip-path="url(#clip0_4007_33)">
<path d="M21.8389 13.3224C22.0334 13.0632 22.3245 12.9139 22.6351 12.9139C22.9458 12.9139 23.2354 13.0632 23.4314 13.324L30.6039 22.8648L35.9487 16.078C36.1915 15.7732 36.4961 15.7182 36.5972 15.6994L36.668 15.6868H36.7405C37.0451 15.69 37.3316 15.8377 37.5246 16.0937L53.3522 36.8973C53.7414 34.99 53.9525 33.0089 53.9525 30.9744C53.9525 15.7968 42.5964 3.49408 28.5891 3.49408C14.5819 3.49408 3.22583 15.7983 3.22583 30.9744C3.22583 33.1 3.45657 35.1644 3.87884 37.1502L21.8389 13.3224Z" fill="url(#paint0_linear_4007_33)"/>
<path d="M28.5877 0C12.8234 0 0 13.8957 0 30.9743C0 48.0529 12.825 61.9487 28.5877 61.9487C44.3503 61.9487 57.1753 48.0529 57.1753 30.9743C57.1753 13.8957 44.3503 0 28.5877 0ZM53.6855 41.5709C53.1094 43.1686 52.4021 44.6957 51.5877 46.1442C51.5757 46.1661 51.5636 46.1882 51.5516 46.2086C51.3585 46.5495 51.1609 46.8857 50.9543 47.2171C50.7749 47.5094 50.5864 47.7953 50.3978 48.0813C50.3677 48.1268 50.3375 48.1739 50.3074 48.2195C45.4076 55.5027 37.4779 60.2394 28.5228 60.2394C13.6408 60.2394 1.57747 47.1685 1.57747 31.045C1.57747 21.4523 5.84843 12.9421 12.4404 7.62104C16.9436 3.95584 22.5356 1.78154 28.5877 1.78154C43.444 1.78154 55.5315 14.8776 55.5315 30.9743C55.5315 33.9719 55.1107 36.8641 54.334 39.5883L54.3039 39.549C54.1138 40.2261 53.8997 40.8891 53.6659 41.5442L53.6855 41.5709Z" fill="white"/>
<path d="M75.6746 27.2529C75.4296 27.2529 75.2391 27.1839 75.103 27.0458C74.9669 26.8939 74.8988 26.6869 74.8988 26.4245V13.1923C74.8988 12.9161 74.9669 12.709 75.103 12.571C75.2391 12.433 75.4296 12.3639 75.6746 12.3639C75.8923 12.3639 76.0625 12.4123 76.185 12.5089C76.3211 12.5917 76.4436 12.7367 76.5525 12.9438L82.1464 23.629H81.5339L87.1074 12.9438C87.2161 12.7367 87.3315 12.5917 87.4546 12.5089C87.5769 12.4123 87.7535 12.3639 87.9852 12.3639C88.217 12.3639 88.4004 12.433 88.5362 12.571C88.6729 12.709 88.7408 12.9161 88.7408 13.1923V26.4245C88.7408 26.6869 88.6729 26.8939 88.5362 27.0458C88.414 27.1839 88.2238 27.2529 87.9649 27.2529C87.7195 27.2529 87.5294 27.1839 87.3935 27.0458C87.2568 26.8939 87.1889 26.6869 87.1889 26.4245V14.7867H87.6788L82.5751 24.4988C82.4798 24.6782 82.3777 24.8094 82.2689 24.8922C82.1736 24.9613 82.0306 24.9957 81.8401 24.9957C81.6496 24.9957 81.4999 24.9543 81.391 24.8715C81.2821 24.7887 81.1868 24.6644 81.1052 24.4988L75.94 14.766H76.43V26.4245C76.43 26.6869 76.3619 26.8939 76.2258 27.0458C76.1033 27.1839 75.9196 27.2529 75.6746 27.2529ZM96.5691 27.2944C95.5214 27.2944 94.6165 27.0873 93.8541 26.6731C93.1053 26.2451 92.5204 25.6446 92.0984 24.8715C91.6901 24.0984 91.4855 23.1734 91.4855 22.0966C91.4855 21.0474 91.6901 20.1363 92.0984 19.3632C92.5068 18.5763 93.0646 17.962 93.7726 17.5202C94.4934 17.0784 95.3236 16.8575 96.2634 16.8575C96.9299 16.8575 97.5292 16.9749 98.0598 17.2095C98.5904 17.4305 99.0395 17.7549 99.4071 18.1829C99.7883 18.6108 100.074 19.1285 100.265 19.736C100.468 20.3434 100.571 21.0268 100.571 21.786C100.571 22.0069 100.51 22.1726 100.387 22.283C100.265 22.3796 100.088 22.428 99.8562 22.428H92.7513V21.3305H99.4683L99.1414 21.5997C99.1414 20.8542 99.0327 20.226 98.8154 19.7152C98.5972 19.1906 98.2772 18.7903 97.8552 18.5142C97.4469 18.238 96.9299 18.1 96.3042 18.1C95.6097 18.1 95.018 18.2657 94.5282 18.597C94.0511 18.9145 93.6911 19.3632 93.4457 19.943C93.2004 20.5091 93.0781 21.1717 93.0781 21.931V22.0552C93.0781 23.3253 93.3778 24.2917 93.9763 24.9543C94.5893 25.617 95.4535 25.9483 96.5691 25.9483C97.0317 25.9483 97.4885 25.8862 97.9376 25.7619C98.4003 25.6377 98.8494 25.4306 99.2849 25.1407C99.475 25.0165 99.6457 24.9613 99.7951 24.975C99.9581 24.975 100.088 25.0233 100.183 25.12C100.278 25.2028 100.339 25.3133 100.366 25.4513C100.407 25.5756 100.394 25.7136 100.326 25.8655C100.271 26.0173 100.156 26.1485 99.9785 26.259C99.5294 26.5902 98.9988 26.8456 98.3867 27.0251C97.7737 27.2045 97.1684 27.2944 96.5691 27.2944ZM106.945 27.2944C106.169 27.2944 105.516 27.1562 104.986 26.8802C104.468 26.5902 104.08 26.1761 103.822 25.6377C103.563 25.0855 103.434 24.4159 103.434 23.629V18.3485H102.066C101.834 18.3485 101.658 18.2933 101.535 18.1829C101.412 18.0586 101.351 17.8929 101.351 17.6858C101.351 17.4788 101.412 17.32 101.535 17.2095C101.658 17.0991 101.834 17.0439 102.066 17.0439H103.434V14.6625C103.434 14.3864 103.508 14.1793 103.658 14.0412C103.808 13.8894 104.012 13.8135 104.271 13.8135C104.529 13.8135 104.727 13.8894 104.863 14.0412C105.013 14.1793 105.088 14.3864 105.088 14.6625V17.0439H107.66C107.891 17.0439 108.068 17.0991 108.19 17.2095C108.313 17.32 108.374 17.4788 108.374 17.6858C108.374 17.8929 108.313 18.0586 108.19 18.1829C108.068 18.2933 107.891 18.3485 107.66 18.3485H105.088V23.4634C105.088 24.2502 105.251 24.8508 105.577 25.265C105.904 25.6653 106.435 25.8655 107.17 25.8655C107.428 25.8655 107.646 25.8379 107.823 25.7827C108.014 25.7274 108.17 25.6998 108.292 25.6998C108.415 25.686 108.517 25.7274 108.599 25.8241C108.68 25.9207 108.721 26.0864 108.721 26.321C108.721 26.4867 108.687 26.6385 108.619 26.7767C108.565 26.9147 108.463 27.0113 108.313 27.0665C108.15 27.1218 107.932 27.1701 107.66 27.2115C107.401 27.2667 107.163 27.2944 106.945 27.2944ZM113.225 27.2944C112.545 27.2944 111.932 27.1632 111.388 26.9008C110.857 26.6248 110.435 26.252 110.122 25.7827C109.809 25.3133 109.652 24.7887 109.652 24.2088C109.652 23.4634 109.837 22.8766 110.203 22.4487C110.585 22.0207 111.204 21.717 112.062 21.5375C112.933 21.358 114.117 21.2683 115.614 21.2683H116.532V22.3659H115.634C114.532 22.3659 113.66 22.4211 113.021 22.5315C112.395 22.6282 111.952 22.8007 111.694 23.0492C111.449 23.2977 111.326 23.6497 111.326 24.1053C111.326 24.6713 111.517 25.1338 111.898 25.4927C112.293 25.8516 112.824 26.0311 113.491 26.0311C114.035 26.0311 114.511 25.9 114.919 25.6377C115.341 25.3754 115.668 25.0165 115.9 24.5608C116.144 24.1053 116.267 23.5807 116.267 22.9871V20.6263C116.267 19.7705 116.097 19.1561 115.756 18.7834C115.417 18.3968 114.858 18.2035 114.082 18.2035C113.606 18.2035 113.13 18.2657 112.653 18.3899C112.177 18.5142 111.674 18.7143 111.143 18.9905C110.952 19.0871 110.789 19.1216 110.652 19.094C110.517 19.0526 110.408 18.9766 110.326 18.8662C110.244 18.7557 110.197 18.6315 110.183 18.4935C110.169 18.3416 110.197 18.1966 110.265 18.0586C110.347 17.9206 110.469 17.8101 110.632 17.7272C111.231 17.4235 111.823 17.2026 112.409 17.0646C112.994 16.9266 113.552 16.8575 114.082 16.8575C114.94 16.8575 115.648 17.0025 116.205 17.2924C116.764 17.5685 117.179 17.9965 117.451 18.5763C117.723 19.1423 117.859 19.874 117.859 20.7713V26.3831C117.859 26.6593 117.791 26.8733 117.655 27.0251C117.533 27.177 117.349 27.2529 117.105 27.2529C116.846 27.2529 116.648 27.177 116.512 27.0251C116.376 26.8733 116.308 26.6593 116.308 26.3831V24.7679H116.492C116.383 25.2925 116.172 25.7413 115.859 26.1139C115.559 26.4867 115.185 26.7767 114.736 26.9837C114.287 27.1908 113.783 27.2944 113.225 27.2944ZM122.051 27.2529C121.764 27.2529 121.54 27.177 121.376 27.0251C121.227 26.8595 121.152 26.6248 121.152 26.321V13.4407C121.152 13.137 121.227 12.9092 121.376 12.7574C121.54 12.5917 121.771 12.5089 122.071 12.5089H129.481C129.713 12.5089 129.89 12.571 130.012 12.6952C130.135 12.8195 130.196 12.9921 130.196 13.2129C130.196 13.4477 130.135 13.6271 130.012 13.7514C129.89 13.8756 129.713 13.9377 129.481 13.9377H122.826V19.0319H129.053C129.285 19.0319 129.461 19.094 129.583 19.2183C129.72 19.3425 129.788 19.5151 129.788 19.736C129.788 19.9706 129.72 20.1501 129.583 20.2743C129.461 20.3986 129.285 20.4607 129.053 20.4607H122.826V26.321C122.826 26.9422 122.568 27.2529 122.051 27.2529ZM133.308 27.2115C133.035 27.2115 132.831 27.1356 132.695 26.9837C132.559 26.8181 132.491 26.5902 132.491 26.3004V17.8308C132.491 17.5409 132.559 17.32 132.695 17.1682C132.831 17.0163 133.035 16.9404 133.308 16.9404C133.566 16.9404 133.77 17.0163 133.92 17.1682C134.07 17.32 134.145 17.5409 134.145 17.8308V26.3004C134.145 26.5902 134.07 26.8181 133.92 26.9837C133.784 27.1356 133.579 27.2115 133.308 27.2115ZM133.308 14.6211C132.967 14.6211 132.702 14.5314 132.511 14.3519C132.321 14.1586 132.225 13.9032 132.225 13.5857C132.225 13.2544 132.321 13.0058 132.511 12.8402C132.702 12.6607 132.967 12.571 133.308 12.571C133.662 12.571 133.927 12.6607 134.104 12.8402C134.294 13.0058 134.389 13.2544 134.389 13.5857C134.389 13.9032 134.294 14.1586 134.104 14.3519C133.927 14.5314 133.662 14.6211 133.308 14.6211ZM138.073 27.2529C137.801 27.2529 137.59 27.177 137.44 27.0251C137.304 26.8733 137.236 26.6593 137.236 26.3831V17.748C137.236 17.4719 137.304 17.2648 137.44 17.1268C137.576 16.9749 137.773 16.8989 138.032 16.8989C138.291 16.8989 138.488 16.9749 138.624 17.1268C138.774 17.2648 138.849 17.4719 138.849 17.748V19.4253H138.644C138.862 18.6108 139.278 17.9826 139.89 17.5409C140.503 17.0991 141.258 16.8644 142.156 16.8368C142.36 16.8231 142.524 16.8714 142.646 16.9818C142.769 17.0784 142.836 17.251 142.85 17.4995C142.864 17.7342 142.809 17.9206 142.687 18.0586C142.565 18.1966 142.374 18.2795 142.116 18.3071L141.789 18.3485C140.863 18.4314 140.149 18.7351 139.645 19.2597C139.155 19.7705 138.91 20.4745 138.91 21.3719V26.3831C138.91 26.6593 138.835 26.8733 138.686 27.0251C138.549 27.177 138.345 27.2529 138.073 27.2529ZM148.904 27.2944C147.856 27.2944 146.951 27.0873 146.189 26.6731C145.44 26.2451 144.855 25.6446 144.433 24.8715C144.025 24.0984 143.821 23.1734 143.821 22.0966C143.821 21.0474 144.025 20.1363 144.433 19.3632C144.842 18.5763 145.399 17.962 146.107 17.5202C146.829 17.0784 147.659 16.8575 148.598 16.8575C149.265 16.8575 149.864 16.9749 150.395 17.2095C150.925 17.4305 151.374 17.7549 151.742 18.1829C152.123 18.6108 152.409 19.1285 152.599 19.736C152.804 20.3434 152.906 21.0268 152.906 21.786C152.906 22.0069 152.845 22.1726 152.722 22.283C152.599 22.3796 152.423 22.428 152.191 22.428H145.087V21.3305H151.803L151.477 21.5997C151.477 20.8542 151.368 20.226 151.15 19.7152C150.932 19.1906 150.612 18.7903 150.191 18.5142C149.783 18.238 149.265 18.1 148.639 18.1C147.945 18.1 147.353 18.2657 146.863 18.597C146.387 18.9145 146.026 19.3632 145.781 19.943C145.536 20.5091 145.413 21.1717 145.413 21.931V22.0552C145.413 23.3253 145.713 24.2917 146.311 24.9543C146.924 25.617 147.788 25.9483 148.904 25.9483C149.367 25.9483 149.823 25.8862 150.272 25.7619C150.735 25.6377 151.184 25.4306 151.62 25.1407C151.81 25.0165 151.981 24.9613 152.13 24.975C152.293 24.975 152.423 25.0233 152.518 25.12C152.613 25.2028 152.674 25.3133 152.701 25.4513C152.742 25.5756 152.729 25.7136 152.661 25.8655C152.606 26.0173 152.491 26.1485 152.313 26.259C151.864 26.5902 151.334 26.8456 150.722 27.0251C150.109 27.2045 149.503 27.2944 148.904 27.2944Z" fill="white"/>
<path d="M77.4706 46.8883C77.1909 46.8883 76.9712 46.814 76.8113 46.6653C76.6648 46.5032 76.5916 46.2735 76.5916 45.9763V33.3713C76.5916 33.0741 76.6648 32.8511 76.8113 32.7026C76.9712 32.5404 77.1976 32.4594 77.4906 32.4594H84.7431C84.9698 32.4594 85.1429 32.5202 85.2626 32.6418C85.3823 32.7634 85.4426 32.9323 85.4426 33.1484C85.4426 33.3781 85.3823 33.5537 85.2626 33.6753C85.1429 33.7969 84.9698 33.8577 84.7431 33.8577H78.2299V38.8429H84.3235C84.5499 38.8429 84.7231 38.9037 84.843 39.0253C84.9765 39.1469 85.0428 39.3158 85.0428 39.532C85.0428 39.7616 84.9765 39.9373 84.843 40.0589C84.7231 40.1805 84.5499 40.2413 84.3235 40.2413H78.2299V45.9763C78.2299 46.5843 77.9768 46.8883 77.4706 46.8883ZM88.487 46.8477C88.2213 46.8477 88.0209 46.7734 87.8876 46.6248C87.7552 46.4627 87.6881 46.2398 87.6881 45.956V37.6676C87.6881 37.3839 87.7552 37.1677 87.8876 37.0191C88.0209 36.8705 88.2213 36.7961 88.487 36.7961C88.7408 36.7961 88.9403 36.8705 89.0863 37.0191C89.2332 37.1677 89.3062 37.3839 89.3062 37.6676V45.956C89.3062 46.2398 89.2332 46.4627 89.0863 46.6248C88.9539 46.7734 88.7536 46.8477 88.487 46.8477ZM88.487 34.5264C88.1542 34.5264 87.8944 34.4386 87.7085 34.263C87.5217 34.0738 87.4283 33.8239 87.4283 33.5132C87.4283 33.1889 87.5217 32.9458 87.7085 32.7836C87.8944 32.608 88.1542 32.5202 88.487 32.5202C88.8334 32.5202 89.0931 32.608 89.2663 32.7836C89.4531 32.9458 89.5465 33.1889 89.5465 33.5132C89.5465 33.8239 89.4531 34.0738 89.2663 34.263C89.0931 34.4386 88.8334 34.5264 88.487 34.5264ZM93.1308 46.8883C92.8642 46.8883 92.6647 46.814 92.5314 46.6653C92.3981 46.5167 92.3319 46.3073 92.3319 46.0371V37.5865C92.3319 37.3163 92.3981 37.1136 92.5314 36.9785C92.6647 36.8299 92.8583 36.7556 93.1113 36.7556C93.3643 36.7556 93.557 36.8299 93.6903 36.9785C93.8371 37.1136 93.9101 37.3163 93.9101 37.5865V39.3293L93.6903 39.0861C93.9704 38.3026 94.4229 37.7149 95.0486 37.3231C95.6887 36.9177 96.4205 36.7151 97.2465 36.7151C98.0191 36.7151 98.6584 36.8569 99.1643 37.1407C99.6839 37.4244 100.07 37.8567 100.323 38.4376C100.576 39.0051 100.703 39.7279 100.703 40.606V46.0371C100.703 46.3073 100.63 46.5167 100.484 46.6653C100.35 46.814 100.157 46.8883 99.9038 46.8883C99.6372 46.8883 99.4309 46.814 99.2849 46.6653C99.1516 46.5167 99.0845 46.3073 99.0845 46.0371V40.7073C99.0845 39.7887 98.9046 39.1199 98.5454 38.7011C98.1991 38.2687 97.6396 38.0526 96.8671 38.0526C95.9748 38.0526 95.2617 38.3363 94.7294 38.9037C94.2098 39.4577 93.95 40.2007 93.95 41.133V46.0371C93.95 46.6045 93.6767 46.8883 93.1308 46.8883ZM106.744 46.9288C106.078 46.9288 105.479 46.8004 104.946 46.5438C104.426 46.2735 104.014 45.9088 103.707 45.4495C103.401 44.99 103.248 44.4767 103.248 43.9093C103.248 43.1797 103.428 42.6055 103.787 42.1867C104.16 41.7679 104.766 41.4707 105.605 41.295C106.458 41.1194 107.617 41.0316 109.082 41.0316H109.981V42.1057H109.101C108.022 42.1057 107.17 42.1597 106.544 42.2677C105.931 42.3624 105.498 42.5312 105.245 42.7744C105.006 43.0176 104.886 43.3621 104.886 43.8079C104.886 44.3619 105.072 44.8145 105.446 45.1657C105.832 45.517 106.351 45.6926 107.004 45.6926C107.537 45.6926 108.003 45.5642 108.403 45.3075C108.815 45.0508 109.134 44.6996 109.361 44.2538C109.601 43.8079 109.721 43.2945 109.721 42.7136V40.4033C109.721 39.5657 109.555 38.9645 109.221 38.5997C108.888 38.2215 108.342 38.0324 107.583 38.0324C107.117 38.0324 106.65 38.0931 106.184 38.2147C105.718 38.3363 105.226 38.5322 104.706 38.8024C104.52 38.897 104.36 38.9308 104.227 38.9037C104.093 38.8632 103.987 38.7889 103.907 38.6809C103.827 38.5727 103.78 38.4511 103.767 38.316C103.754 38.1675 103.78 38.0256 103.847 37.8904C103.927 37.7553 104.047 37.6473 104.206 37.5662C104.793 37.269 105.372 37.0528 105.945 36.9177C106.518 36.7826 107.064 36.7151 107.583 36.7151C108.422 36.7151 109.115 36.8569 109.661 37.1407C110.207 37.4109 110.613 37.8296 110.88 38.3971C111.147 38.951 111.279 39.6671 111.279 40.5453V46.0371C111.279 46.3073 111.213 46.5167 111.079 46.6653C110.96 46.814 110.78 46.8883 110.54 46.8883C110.287 46.8883 110.094 46.814 109.961 46.6653C109.827 46.5167 109.761 46.3073 109.761 46.0371V44.4564H109.941C109.834 44.9698 109.628 45.4089 109.321 45.7737C109.028 46.1384 108.662 46.4222 108.223 46.6248C107.783 46.8275 107.29 46.9288 106.744 46.9288ZM115.081 46.8883C114.814 46.8883 114.615 46.814 114.481 46.6653C114.348 46.5167 114.282 46.3073 114.282 46.0371V37.5865C114.282 37.3163 114.348 37.1136 114.481 36.9785C114.615 36.8299 114.808 36.7556 115.061 36.7556C115.314 36.7556 115.507 36.8299 115.64 36.9785C115.787 37.1136 115.86 37.3163 115.86 37.5865V39.3293L115.64 39.0861C115.92 38.3026 116.373 37.7149 116.999 37.3231C117.639 36.9177 118.371 36.7151 119.196 36.7151C119.969 36.7151 120.608 36.8569 121.115 37.1407C121.634 37.4244 122.02 37.8567 122.273 38.4376C122.527 39.0051 122.653 39.7279 122.653 40.606V46.0371C122.653 46.3073 122.579 46.5167 122.433 46.6653C122.3 46.814 122.107 46.8883 121.854 46.8883C121.587 46.8883 121.381 46.814 121.235 46.6653C121.101 46.5167 121.034 46.3073 121.034 46.0371V40.7073C121.034 39.7887 120.855 39.1199 120.495 38.7011C120.149 38.2687 119.589 38.0526 118.817 38.0526C117.925 38.0526 117.212 38.3363 116.679 38.9037C116.16 39.4577 115.9 40.2007 115.9 41.133V46.0371C115.9 46.6045 115.627 46.8883 115.081 46.8883ZM129.753 46.9288C128.78 46.9288 127.941 46.7126 127.235 46.2803C126.53 45.848 125.984 45.2467 125.597 44.4767C125.224 43.6931 125.038 42.7879 125.038 41.7611C125.038 40.9775 125.144 40.275 125.357 39.6536C125.57 39.0321 125.884 38.5052 126.296 38.0728C126.71 37.627 127.202 37.2893 127.775 37.0596C128.361 36.8299 129.021 36.7151 129.753 36.7151C130.232 36.7151 130.732 36.7894 131.252 36.938C131.771 37.0866 132.243 37.3433 132.67 37.7081C132.803 37.8027 132.889 37.9175 132.929 38.0526C132.97 38.1877 132.97 38.3228 132.929 38.4579C132.889 38.5795 132.823 38.6876 132.73 38.7821C132.636 38.8632 132.517 38.9105 132.37 38.924C132.237 38.9376 132.097 38.8902 131.95 38.7821C131.604 38.5119 131.252 38.3228 130.892 38.2147C130.532 38.1067 130.185 38.0526 129.852 38.0526C129.333 38.0526 128.88 38.1404 128.494 38.316C128.108 38.4782 127.782 38.7146 127.515 39.0253C127.249 39.3361 127.042 39.7211 126.896 40.1805C126.762 40.6398 126.696 41.1734 126.696 41.7814C126.696 42.9568 126.969 43.889 127.515 44.578C128.061 45.2535 128.841 45.5913 129.852 45.5913C130.185 45.5913 130.526 45.5372 130.871 45.4291C131.231 45.3211 131.591 45.132 131.95 44.8617C132.097 44.7537 132.237 44.7064 132.37 44.7198C132.503 44.7334 132.617 44.7874 132.71 44.882C132.803 44.9631 132.863 45.0712 132.889 45.2063C132.929 45.3414 132.929 45.4764 132.889 45.6115C132.849 45.7331 132.763 45.8413 132.629 45.9358C132.203 46.2871 131.737 46.5438 131.231 46.7059C130.725 46.8544 130.232 46.9288 129.753 46.9288ZM135.685 46.8477C135.418 46.8477 135.218 46.7734 135.085 46.6248C134.952 46.4627 134.885 46.2398 134.885 45.956V37.6676C134.885 37.3839 134.952 37.1677 135.085 37.0191C135.218 36.8705 135.418 36.7961 135.685 36.7961C135.938 36.7961 136.137 36.8705 136.284 37.0191C136.43 37.1677 136.503 37.3839 136.503 37.6676V45.956C136.503 46.2398 136.43 46.4627 136.284 46.6248C136.151 46.7734 135.951 46.8477 135.685 46.8477ZM135.685 34.5264C135.351 34.5264 135.091 34.4386 134.905 34.263C134.719 34.0738 134.625 33.8239 134.625 33.5132C134.625 33.1889 134.719 32.9458 134.905 32.7836C135.091 32.608 135.351 32.5202 135.685 32.5202C136.03 32.5202 136.29 32.608 136.463 32.7836C136.65 32.9458 136.743 33.1889 136.743 33.5132C136.743 33.8239 136.65 34.0738 136.463 34.263C136.29 34.4386 136.03 34.5264 135.685 34.5264ZM142.586 46.9288C141.92 46.9288 141.32 46.8004 140.788 46.5438C140.268 46.2735 139.855 45.9088 139.549 45.4495C139.243 44.99 139.089 44.4767 139.089 43.9093C139.089 43.1797 139.269 42.6055 139.629 42.1867C140.002 41.7679 140.608 41.4707 141.447 41.295C142.299 41.1194 143.458 41.0316 144.923 41.0316H145.822V42.1057H144.944C143.865 42.1057 143.012 42.1597 142.386 42.2677C141.774 42.3624 141.341 42.5312 141.088 42.7744C140.847 43.0176 140.728 43.3621 140.728 43.8079C140.728 44.3619 140.914 44.8145 141.287 45.1657C141.673 45.517 142.193 45.6926 142.846 45.6926C143.378 45.6926 143.844 45.5642 144.244 45.3075C144.657 45.0508 144.977 44.6996 145.203 44.2538C145.443 43.8079 145.562 43.2945 145.562 42.7136V40.4033C145.562 39.5657 145.396 38.9645 145.063 38.5997C144.73 38.2215 144.184 38.0324 143.425 38.0324C142.959 38.0324 142.493 38.0931 142.027 38.2147C141.56 38.3363 141.067 38.5322 140.548 38.8024C140.362 38.897 140.201 38.9308 140.068 38.9037C139.936 38.8632 139.829 38.7889 139.749 38.6809C139.669 38.5727 139.622 38.4511 139.609 38.316C139.595 38.1675 139.622 38.0256 139.689 37.8904C139.768 37.7553 139.889 37.6473 140.048 37.5662C140.634 37.269 141.214 37.0528 141.786 36.9177C142.359 36.7826 142.905 36.7151 143.425 36.7151C144.264 36.7151 144.956 36.8569 145.503 37.1407C146.049 37.4109 146.455 37.8296 146.721 38.3971C146.988 38.951 147.121 39.6671 147.121 40.5453V46.0371C147.121 46.3073 147.054 46.5167 146.922 46.6653C146.801 46.814 146.622 46.8883 146.382 46.8883C146.129 46.8883 145.936 46.814 145.803 46.6653C145.669 46.5167 145.602 46.3073 145.602 46.0371V44.4564H145.782C145.676 44.9698 145.469 45.4089 145.163 45.7737C144.87 46.1384 144.504 46.4222 144.064 46.6248C143.624 46.8275 143.132 46.9288 142.586 46.9288ZM153.08 46.9288C152.122 46.9288 151.389 46.6316 150.883 46.0371C150.376 45.4426 150.123 44.5915 150.123 43.4837V33.1484C150.123 32.8782 150.19 32.6756 150.323 32.5404C150.457 32.3918 150.656 32.3175 150.923 32.3175C151.176 32.3175 151.375 32.3918 151.522 32.5404C151.668 32.6756 151.742 32.8782 151.742 33.1484V43.3621C151.742 44.0917 151.881 44.6388 152.161 45.0036C152.454 45.3548 152.88 45.5305 153.44 45.5305C153.56 45.5305 153.667 45.5238 153.76 45.5102C153.853 45.4967 153.946 45.4899 154.039 45.4899C154.186 45.4764 154.286 45.5102 154.339 45.5913C154.405 45.6723 154.439 45.8345 154.439 46.0776C154.439 46.3208 154.386 46.5032 154.279 46.6248C154.173 46.7464 153.999 46.8275 153.76 46.868C153.653 46.8815 153.54 46.895 153.42 46.9085C153.3 46.922 153.187 46.9288 153.08 46.9288Z" fill="white"/>
<path d="M69.3467 39.9265H64.9746V40.7354H69.3467V39.9265Z" fill="white"/>
<path d="M159.002 40.7352H162.627C162.834 40.7352 163 40.5546 163 40.3316C163 40.1086 162.833 39.9279 162.627 39.9279H159.002C158.795 39.9279 158.63 40.1086 158.63 40.3316C158.63 40.5546 158.797 40.7352 159.002 40.7352Z" fill="white"/>
<path d="M36.7088 19.2278L32.017 25.1868L34.9187 32.1385C34.9609 32.2407 34.9277 32.36 34.8402 32.4198C34.7513 32.4779 34.6382 32.4575 34.5733 32.371L22.6351 16.4927L4.76709 40.2466C8.27645 50.8275 17.6161 58.3951 28.5891 58.3951C39.6496 58.3951 49.0465 50.705 52.4896 39.9937L36.7088 19.2278ZM17.6705 32.1024L6.24654 41.0855L22.4934 20.4234V20.3904L22.5055 20.4077L22.5175 20.3904V20.4234L30.619 30.9744L25.1069 28.7734L21.4061 34.7637L17.6705 32.1024ZM34.5205 44.3234L28.0794 47.8283L24.6379 56.7817L24.6515 37.9639C24.6258 37.2224 25.1522 36.5956 25.8353 36.55L37.0979 36.5798L28.0191 41.9323L34.5205 44.3234ZM38.1625 28.354L36.7842 25.5245L33.9339 25.7618L36.7706 22.4296L44.4001 31.8118L38.1625 28.354Z" fill="white"/>
</g>
<defs>
<linearGradient id="paint0_linear_4007_33" x1="28.5877" y1="3.49328" x2="28.5877" y2="37.1507" gradientUnits="userSpaceOnUse">
<stop offset="0.2312" stop-color="#662F90"/>
<stop offset="0.5246" stop-color="#42348F"/>
<stop offset="0.6859" stop-color="#2E368F"/>
<stop offset="0.7214" stop-color="#2D4799"/>
<stop offset="0.8146" stop-color="#2D6FB4"/>
<stop offset="0.8917" stop-color="#2C8ECB"/>
<stop offset="0.9489" stop-color="#2AA2DB"/>
<stop offset="0.9799" stop-color="#29AAE2"/>
</linearGradient>
<clipPath id="clip0_4007_33">
<rect width="163" height="62" fill="white"/>
</clipPath>
</defs>
</svg>
