<svg width="134" height="50" viewBox="0 0 134 50" fill="none" xmlns="http://www.w3.org/2000/svg">
<g clip-path="url(#clip0_4007_535)">
<path d="M17.8641 10.7438C18.0232 10.5347 18.2613 10.4144 18.5154 10.4144C18.7695 10.4144 19.0064 10.5347 19.1668 10.7451L25.0339 18.4393L29.4059 12.9661C29.6045 12.7203 29.8536 12.6759 29.9363 12.6607L29.9943 12.6506H30.0535C30.3027 12.6532 30.537 12.7722 30.695 12.9787L43.6418 29.7558C43.9602 28.2177 44.1329 26.62 44.1329 24.9793C44.1329 12.7393 34.8436 2.81775 23.3857 2.81775C11.9279 2.81775 2.63867 12.7405 2.63867 24.9793C2.63867 26.6935 2.82741 28.3583 3.17283 29.9597L17.8641 10.7438Z" fill="url(#paint0_linear_4007_535)"/>
<path d="M23.3846 0C10.4895 0 0 11.2062 0 24.9793C0 38.7524 10.4908 49.9586 23.3846 49.9586C36.2784 49.9586 46.7692 38.7524 46.7692 24.9793C46.7692 11.2062 36.2784 0 23.3846 0ZM43.9145 33.5249C43.4433 34.8134 42.8647 36.0449 42.1985 37.2131C42.1887 37.2308 42.1788 37.2485 42.169 37.265C42.011 37.5399 41.8494 37.811 41.6804 38.0783C41.5337 38.314 41.3794 38.5446 41.2252 38.7752C41.2006 38.8119 41.1759 38.8499 41.1512 38.8867C37.1432 44.7603 30.6568 48.5801 23.3315 48.5801C11.1581 48.5801 1.29037 38.0391 1.29037 25.0363C1.29037 17.3003 4.78399 10.4372 10.1762 6.146C13.8598 3.19019 18.434 1.43673 23.3846 1.43673C35.537 1.43673 45.4245 11.9981 45.4245 24.9793C45.4245 27.3967 45.0803 29.7291 44.445 31.926L44.4203 31.8944C44.2649 32.4404 44.0897 32.9751 43.8985 33.5034L43.9145 33.5249Z" fill="white"/>
<path d="M61.9014 21.9782C61.701 21.9782 61.5452 21.9225 61.4339 21.8112C61.3225 21.6887 61.2668 21.5218 61.2668 21.3102V10.639C61.2668 10.4163 61.3225 10.2493 61.4339 10.138C61.5452 10.0266 61.701 9.97095 61.9014 9.97095C62.0796 9.97095 62.2187 10.01 62.3189 10.0879C62.4303 10.1547 62.5305 10.2716 62.6196 10.4386L67.1953 19.0557H66.6943L71.2534 10.4386C71.3423 10.2716 71.4368 10.1547 71.5375 10.0879C71.6375 10.01 71.7819 9.97095 71.9715 9.97095C72.1611 9.97095 72.3111 10.0266 72.4222 10.138C72.534 10.2493 72.5896 10.4163 72.5896 10.639V21.3102C72.5896 21.5218 72.534 21.6887 72.4222 21.8112C72.3222 21.9225 72.1666 21.9782 71.9548 21.9782C71.7541 21.9782 71.5986 21.9225 71.4875 21.8112C71.3757 21.6887 71.3201 21.5218 71.3201 21.3102V11.9248H71.7208L67.546 19.7571C67.4681 19.9018 67.3846 20.0076 67.2955 20.0744C67.2176 20.1301 67.1007 20.1579 66.9448 20.1579C66.7889 20.1579 66.6665 20.1245 66.5774 20.0578C66.4884 19.9909 66.4104 19.8907 66.3437 19.7571L62.1185 11.9082H62.5193V21.3102C62.5193 21.5218 62.4637 21.6887 62.3523 21.8112C62.2521 21.9225 62.1018 21.9782 61.9014 21.9782ZM78.993 22.0116C78.1361 22.0116 77.3958 21.8446 76.7722 21.5106C76.1597 21.1655 75.6812 20.6812 75.3361 20.0578C75.0021 19.4343 74.8347 18.6883 74.8347 17.8199C74.8347 16.9738 75.0021 16.239 75.3361 15.6155C75.6701 14.9809 76.1264 14.4855 76.7055 14.1293C77.2951 13.773 77.9743 13.5948 78.743 13.5948C79.2882 13.5948 79.7784 13.6895 80.2125 13.8787C80.6465 14.0569 81.0139 14.3185 81.3146 14.6637C81.6264 15.0088 81.8604 15.4263 82.0159 15.9162C82.1826 16.406 82.2666 16.9571 82.2666 17.5694C82.2666 17.7475 82.2166 17.8812 82.1159 17.9703C82.0159 18.0482 81.8715 18.0871 81.6819 18.0871H75.8701V17.2021H81.3646L81.0972 17.4191C81.0972 16.818 81.0083 16.3114 80.8305 15.8994C80.6521 15.4764 80.3902 15.1535 80.0451 14.9309C79.7111 14.7082 79.2882 14.5969 78.7764 14.5969C78.2083 14.5969 77.7243 14.7305 77.3236 14.9977C76.9333 15.2537 76.6389 15.6155 76.4382 16.0832C76.2375 16.5396 76.1375 17.074 76.1375 17.6864V17.7865C76.1375 18.8108 76.3826 19.5901 76.8722 20.1245C77.3736 20.6589 78.0805 20.9261 78.993 20.9261C79.3715 20.9261 79.7451 20.876 80.1125 20.7758C80.4909 20.6756 80.8583 20.5086 81.2146 20.2748C81.3701 20.1746 81.5097 20.1301 81.6319 20.1412C81.7653 20.1412 81.8715 20.1802 81.9493 20.2581C82.0271 20.3249 82.0771 20.414 82.0993 20.5253C82.1326 20.6255 82.1215 20.7369 82.0659 20.8594C82.0215 20.9818 81.9271 21.0875 81.7819 21.1766C81.4146 21.4438 80.9805 21.6498 80.4798 21.7945C79.9784 21.9392 79.4833 22.0116 78.993 22.0116ZM87.4805 22.0116C86.8458 22.0116 86.3118 21.9003 85.8778 21.6776C85.4541 21.4438 85.1368 21.1098 84.9257 20.6756C84.7139 20.2303 84.6083 19.6903 84.6083 19.0557V14.7973H83.4896C83.3 14.7973 83.1555 14.7528 83.0548 14.6637C82.9548 14.5634 82.9048 14.4298 82.9048 14.2628C82.9048 14.0959 82.9548 13.9678 83.0548 13.8787C83.1555 13.7897 83.3 13.7452 83.4896 13.7452H84.6083V11.8247C84.6083 11.602 84.6694 11.435 84.7916 11.3237C84.9146 11.2012 85.0812 11.14 85.293 11.14C85.5041 11.14 85.6659 11.2012 85.7771 11.3237C85.9 11.435 85.9611 11.602 85.9611 11.8247V13.7452H88.0653C88.2541 13.7452 88.3993 13.7897 88.4993 13.8787C88.5993 13.9678 88.6493 14.0959 88.6493 14.2628C88.6493 14.4298 88.5993 14.5634 88.4993 14.6637C88.3993 14.7528 88.2541 14.7973 88.0653 14.7973H85.9611V18.9221C85.9611 19.5567 86.0944 20.041 86.3618 20.375C86.6291 20.6979 87.0632 20.8594 87.6646 20.8594C87.8757 20.8594 88.0541 20.8371 88.1986 20.7925C88.3548 20.748 88.4826 20.7257 88.5826 20.7257C88.6833 20.7146 88.7666 20.748 88.8333 20.8259C88.9 20.9039 88.9333 21.0375 88.9333 21.2267C88.9333 21.3603 88.9055 21.4828 88.85 21.5941C88.8055 21.7055 88.7222 21.7834 88.5993 21.8279C88.4659 21.8725 88.2875 21.9114 88.0653 21.9448C87.8534 21.9894 87.659 22.0116 87.4805 22.0116ZM92.6173 22.0116C92.0611 22.0116 91.5597 21.9059 91.1146 21.6943C90.6805 21.4716 90.3354 21.171 90.0791 20.7925C89.8229 20.414 89.6951 19.9909 89.6951 19.5233C89.6951 18.9221 89.8458 18.4489 90.1458 18.1039C90.4576 17.7587 90.9646 17.5138 91.6659 17.369C92.3784 17.2243 93.3472 17.1519 94.5715 17.1519H95.3229V18.0371H94.5882C93.6868 18.0371 92.9736 18.0816 92.4507 18.1706C91.9389 18.2486 91.5764 18.3878 91.3652 18.5881C91.1646 18.7885 91.0646 19.0724 91.0646 19.4398C91.0646 19.8963 91.2201 20.2693 91.5319 20.5587C91.8548 20.8482 92.2896 20.9929 92.8347 20.9929C93.2798 20.9929 93.6694 20.8871 94.0034 20.6756C94.3486 20.4641 94.6159 20.1746 94.8055 19.8072C95.0055 19.4398 95.1062 19.0168 95.1062 18.538V16.6342C95.1062 15.944 94.9666 15.4485 94.6882 15.148C94.4104 14.8362 93.9534 14.6803 93.3187 14.6803C92.9291 14.6803 92.5396 14.7305 92.15 14.8307C91.7604 14.9309 91.3486 15.0923 90.9146 15.315C90.7583 15.3929 90.625 15.4207 90.5132 15.3984C90.4021 15.365 90.3132 15.3038 90.2465 15.2148C90.1791 15.1257 90.1402 15.0255 90.1291 14.9141C90.118 14.7917 90.1402 14.6748 90.1965 14.5634C90.2632 14.4521 90.3632 14.363 90.4965 14.2962C90.9868 14.0513 91.4708 13.8732 91.95 13.7618C92.4284 13.6505 92.8847 13.5948 93.3187 13.5948C94.0201 13.5948 94.5993 13.7118 95.0555 13.9455C95.5125 14.1682 95.8521 14.5134 96.0743 14.9809C96.2972 15.4374 96.4083 16.0275 96.4083 16.7512V21.2768C96.4083 21.4995 96.3527 21.6721 96.2416 21.7945C96.1416 21.917 95.9909 21.9782 95.7909 21.9782C95.5791 21.9782 95.4173 21.917 95.3062 21.7945C95.1951 21.6721 95.1396 21.4995 95.1396 21.2768V19.9742H95.2896C95.2007 20.3973 95.0277 20.7591 94.7722 21.0597C94.5271 21.3603 94.2208 21.5941 93.8534 21.7611C93.4861 21.9281 93.0743 22.0116 92.6173 22.0116ZM99.8368 21.9782C99.6027 21.9782 99.4194 21.917 99.2854 21.7945C99.1632 21.6609 99.1021 21.4716 99.1021 21.2267V10.8393C99.1021 10.5944 99.1632 10.4107 99.2854 10.2883C99.4194 10.1547 99.6083 10.0879 99.8534 10.0879H105.915C106.105 10.0879 106.249 10.138 106.349 10.2382C106.45 10.3384 106.5 10.4775 106.5 10.6557C106.5 10.845 106.45 10.9897 106.349 11.0899C106.249 11.19 106.105 11.2402 105.915 11.2402H100.471V15.3484H105.565C105.754 15.3484 105.899 15.3984 105.999 15.4987C106.11 15.5989 106.166 15.738 106.166 15.9162C106.166 16.1054 106.11 16.2501 105.999 16.3503C105.899 16.4505 105.754 16.5007 105.565 16.5007H100.471V21.2267C100.471 21.7277 100.26 21.9782 99.8368 21.9782ZM109.045 21.9448C108.822 21.9448 108.656 21.8836 108.544 21.7611C108.433 21.6275 108.377 21.4438 108.377 21.21V14.3798C108.377 14.1459 108.433 13.9678 108.544 13.8454C108.656 13.7229 108.822 13.6616 109.045 13.6616C109.256 13.6616 109.424 13.7229 109.546 13.8454C109.669 13.9678 109.73 14.1459 109.73 14.3798V21.21C109.73 21.4438 109.669 21.6275 109.546 21.7611C109.435 21.8836 109.267 21.9448 109.045 21.9448ZM109.045 11.7913C108.767 11.7913 108.549 11.7189 108.394 11.5741C108.238 11.4183 108.16 11.2123 108.16 10.9563C108.16 10.6891 108.238 10.4887 108.394 10.355C108.549 10.2103 108.767 10.138 109.045 10.138C109.335 10.138 109.551 10.2103 109.696 10.355C109.852 10.4887 109.93 10.6891 109.93 10.9563C109.93 11.2123 109.852 11.4183 109.696 11.5741C109.551 11.7189 109.335 11.7913 109.045 11.7913ZM112.943 21.9782C112.721 21.9782 112.548 21.917 112.426 21.7945C112.314 21.6721 112.258 21.4995 112.258 21.2768V14.313C112.258 14.0903 112.314 13.9233 112.426 13.812C112.537 13.6895 112.698 13.6282 112.91 13.6282C113.121 13.6282 113.283 13.6895 113.394 13.812C113.517 13.9233 113.578 14.0903 113.578 14.313V15.6657H113.41C113.589 15.0088 113.928 14.5022 114.429 14.1459C114.931 13.7897 115.549 13.6004 116.283 13.5782C116.45 13.5671 116.584 13.606 116.684 13.695C116.784 13.773 116.84 13.9121 116.851 14.1125C116.862 14.3019 116.817 14.4521 116.717 14.5634C116.617 14.6748 116.461 14.7416 116.25 14.7639L115.983 14.7973C115.226 14.8641 114.641 15.109 114.229 15.5321C113.828 15.944 113.628 16.5118 113.628 17.2355V21.2768C113.628 21.4995 113.567 21.6721 113.444 21.7945C113.333 21.917 113.166 21.9782 112.943 21.9782ZM121.803 22.0116C120.946 22.0116 120.206 21.8446 119.582 21.5106C118.969 21.1655 118.491 20.6812 118.146 20.0578C117.812 19.4343 117.645 18.6883 117.645 17.8199C117.645 16.9738 117.812 16.239 118.146 15.6155C118.48 14.9809 118.936 14.4855 119.515 14.1293C120.106 13.773 120.785 13.5948 121.553 13.5948C122.098 13.5948 122.588 13.6895 123.022 13.8787C123.456 14.0569 123.824 14.3185 124.124 14.6637C124.436 15.0088 124.67 15.4263 124.826 15.9162C124.993 16.406 125.076 16.9571 125.076 17.5694C125.076 17.7475 125.026 17.8812 124.926 17.9703C124.826 18.0482 124.681 18.0871 124.492 18.0871H118.681V17.2021H124.174L123.908 17.4191C123.908 16.818 123.818 16.3114 123.64 15.8994C123.462 15.4764 123.2 15.1535 122.856 14.9309C122.522 14.7082 122.098 14.5969 121.586 14.5969C121.018 14.5969 120.534 14.7305 120.133 14.9977C119.744 15.2537 119.449 15.6155 119.248 16.0832C119.048 16.5396 118.947 17.074 118.947 17.6864V17.7865C118.947 18.8108 119.192 19.5901 119.682 20.1245C120.183 20.6589 120.89 20.9261 121.803 20.9261C122.182 20.9261 122.555 20.876 122.922 20.7758C123.301 20.6756 123.668 20.5086 124.024 20.2748C124.18 20.1746 124.319 20.1301 124.442 20.1412C124.575 20.1412 124.681 20.1802 124.759 20.2581C124.837 20.3249 124.887 20.414 124.909 20.5253C124.942 20.6255 124.931 20.7369 124.876 20.8594C124.831 20.9818 124.737 21.0875 124.592 21.1766C124.224 21.4438 123.79 21.6498 123.29 21.7945C122.788 21.9392 122.293 22.0116 121.803 22.0116Z" fill="white"/>
<path d="M63.3707 37.8131C63.1419 37.8131 62.9622 37.7532 62.8314 37.6333C62.7115 37.5026 62.6516 37.3174 62.6516 37.0776V26.9124C62.6516 26.6726 62.7115 26.4928 62.8314 26.3731C62.9622 26.2423 63.1474 26.1769 63.387 26.1769H69.3195C69.5049 26.1769 69.6466 26.226 69.7445 26.324C69.8424 26.4221 69.8917 26.5583 69.8917 26.7326C69.8917 26.9178 69.8424 27.0594 69.7445 27.1575C69.6466 27.2556 69.5049 27.3046 69.3195 27.3046H63.9918V31.3249H68.9763C69.1615 31.3249 69.3032 31.374 69.4013 31.472C69.5105 31.5701 69.5647 31.7063 69.5647 31.8806C69.5647 32.0658 69.5105 32.2075 69.4013 32.3056C69.3032 32.4036 69.1615 32.4526 68.9763 32.4526H63.9918V37.0776C63.9918 37.568 63.7847 37.8131 63.3707 37.8131ZM72.382 37.7804C72.1647 37.7804 72.0008 37.7205 71.8918 37.6006C71.7834 37.4699 71.7286 37.2901 71.7286 37.0613V30.3771C71.7286 30.1483 71.7834 29.974 71.8918 29.8541C72.0008 29.7342 72.1647 29.6743 72.382 29.6743C72.5897 29.6743 72.7529 29.7342 72.8723 29.8541C72.9924 29.974 73.0522 30.1483 73.0522 30.3771V37.0613C73.0522 37.2901 72.9924 37.4699 72.8723 37.6006C72.764 37.7205 72.6001 37.7804 72.382 37.7804ZM72.382 27.8439C72.1098 27.8439 71.8973 27.7731 71.7452 27.6315C71.5924 27.4789 71.5161 27.2774 71.5161 27.0267C71.5161 26.7653 71.5924 26.5692 71.7452 26.4384C71.8973 26.2967 72.1098 26.226 72.382 26.226C72.6654 26.226 72.8779 26.2967 73.0195 26.4384C73.1723 26.5692 73.2487 26.7653 73.2487 27.0267C73.2487 27.2774 73.1723 27.4789 73.0195 27.6315C72.8779 27.7731 72.6654 27.8439 72.382 27.8439ZM76.1806 37.8131C75.9626 37.8131 75.7994 37.7532 75.6904 37.6333C75.5813 37.5135 75.5272 37.3446 75.5272 37.1267V30.3117C75.5272 30.0938 75.5813 29.9303 75.6904 29.8214C75.7994 29.7015 75.9577 29.6416 76.1647 29.6416C76.3716 29.6416 76.5293 29.7015 76.6383 29.8214C76.7584 29.9303 76.8181 30.0938 76.8181 30.3117V31.7172L76.6383 31.521C76.8674 30.8892 77.2376 30.4152 77.7494 30.0992C78.273 29.7724 78.8716 29.609 79.5473 29.609C80.1792 29.609 80.7022 29.7233 81.1161 29.9522C81.5411 30.181 81.857 30.5296 82.064 30.9981C82.2709 31.4557 82.3751 32.0386 82.3751 32.7468V37.1267C82.3751 37.3446 82.3147 37.5135 82.1952 37.6333C82.0862 37.7532 81.9279 37.8131 81.7209 37.8131C81.5029 37.8131 81.3341 37.7532 81.2147 37.6333C81.1056 37.5135 81.0508 37.3446 81.0508 37.1267V32.8285C81.0508 32.0876 80.9036 31.5483 80.6098 31.2106C80.3265 30.8619 79.8688 30.6876 79.2369 30.6876C78.507 30.6876 77.9237 30.9164 77.4883 31.374C77.0633 31.8207 76.8508 32.4199 76.8508 33.1717V37.1267C76.8508 37.5843 76.6272 37.8131 76.1806 37.8131ZM87.3161 37.8458C86.7716 37.8458 86.2813 37.7423 85.8452 37.5353C85.4202 37.3174 85.0827 37.0232 84.832 36.6528C84.5813 36.2823 84.4563 35.8683 84.4563 35.4107C84.4563 34.8224 84.6036 34.3593 84.8973 34.0215C85.2029 33.6838 85.698 33.4441 86.3848 33.3024C87.082 33.1608 88.0299 33.09 89.2286 33.09H89.964V33.9562H89.2445C88.3619 33.9562 87.6647 33.9997 87.1529 34.0869C86.6515 34.1632 86.2973 34.2994 86.0904 34.4955C85.8945 34.6916 85.7966 34.9694 85.7966 35.329C85.7966 35.7757 85.9487 36.1407 86.2542 36.424C86.5702 36.7072 86.9945 36.8489 87.5286 36.8489C87.9647 36.8489 88.3459 36.7453 88.673 36.5383C89.0105 36.3313 89.2716 36.0481 89.457 35.6885C89.6535 35.329 89.7515 34.9149 89.7515 34.4465V32.5833C89.7515 31.9078 89.6154 31.423 89.3424 31.1288C89.0702 30.8238 88.6237 30.6713 88.0029 30.6713C87.6216 30.6713 87.2397 30.7203 86.8584 30.8183C86.4772 30.9164 86.0744 31.0744 85.6494 31.2923C85.4966 31.3685 85.3661 31.3958 85.257 31.374C85.148 31.3413 85.0612 31.2814 84.9952 31.1942C84.9299 31.107 84.8917 31.009 84.8813 30.9C84.8702 30.7802 84.8917 30.6658 84.9466 30.5568C85.0119 30.4478 85.1098 30.3607 85.2404 30.2953C85.7202 30.0556 86.1938 29.8813 86.6626 29.7724C87.1313 29.6634 87.5779 29.609 88.0029 29.609C88.689 29.609 89.2556 29.7233 89.7022 29.9522C90.1487 30.1701 90.4813 30.5078 90.6994 30.9654C90.9174 31.4121 91.0258 31.9896 91.0258 32.6978V37.1267C91.0258 37.3446 90.9716 37.5135 90.8626 37.6333C90.7647 37.7532 90.6174 37.8131 90.4216 37.8131C90.2147 37.8131 90.0563 37.7532 89.9473 37.6333C89.8383 37.5135 89.7841 37.3446 89.7841 37.1267V35.8519H89.9313C89.8438 36.266 89.6751 36.6201 89.4244 36.9142C89.1848 37.2084 88.8848 37.4372 88.5258 37.6006C88.1661 37.7641 87.7626 37.8458 87.3161 37.8458ZM94.1355 37.8131C93.9174 37.8131 93.7542 37.7532 93.6452 37.6333C93.5362 37.5135 93.482 37.3446 93.482 37.1267V30.3117C93.482 30.0938 93.5362 29.9303 93.6452 29.8214C93.7542 29.7015 93.9126 29.6416 94.1195 29.6416C94.3265 29.6416 94.4841 29.7015 94.5931 29.8214C94.7133 29.9303 94.773 30.0938 94.773 30.3117V31.7172L94.5931 31.521C94.8223 30.8892 95.1924 30.4152 95.7049 30.0992C96.2279 29.7724 96.8272 29.609 97.5022 29.609C98.1341 29.609 98.657 29.7233 99.0716 29.9522C99.4959 30.181 99.8119 30.5296 100.019 30.9981C100.226 31.4557 100.33 32.0386 100.33 32.7468V37.1267C100.33 37.3446 100.27 37.5135 100.15 37.6333C100.041 37.7532 99.8827 37.8131 99.6758 37.8131C99.4577 37.8131 99.289 37.7532 99.1695 37.6333C99.0605 37.5135 99.0056 37.3446 99.0056 37.1267V32.8285C99.0056 32.0876 98.8591 31.5483 98.5647 31.2106C98.2813 30.8619 97.8237 30.6876 97.1917 30.6876C96.4619 30.6876 95.8793 30.9164 95.4431 31.374C95.0181 31.8207 94.8056 32.4199 94.8056 33.1717V37.1267C94.8056 37.5843 94.5827 37.8131 94.1355 37.8131ZM106.138 37.8458C105.342 37.8458 104.656 37.6715 104.078 37.3228C103.501 36.9742 103.054 36.4893 102.738 35.8683C102.433 35.2364 102.281 34.5064 102.281 33.6783C102.281 33.0464 102.367 32.4799 102.542 31.9787C102.716 31.4775 102.972 31.0526 103.31 30.7039C103.648 30.3444 104.051 30.072 104.52 29.8867C104.999 29.7015 105.538 29.609 106.138 29.609C106.529 29.609 106.938 29.6689 107.363 29.7887C107.788 29.9085 108.174 30.1156 108.524 30.4097C108.632 30.486 108.703 30.5786 108.735 30.6876C108.769 30.7965 108.769 30.9055 108.735 31.0144C108.703 31.1125 108.649 31.1997 108.572 31.2759C108.496 31.3413 108.398 31.3794 108.279 31.3903C108.17 31.4013 108.055 31.3631 107.935 31.2759C107.651 31.058 107.363 30.9055 107.069 30.8183C106.774 30.7312 106.491 30.6876 106.219 30.6876C105.794 30.6876 105.424 30.7584 105.108 30.9C104.792 31.0308 104.525 31.2215 104.307 31.472C104.089 31.7226 103.92 32.0331 103.8 32.4036C103.691 32.774 103.637 33.2044 103.637 33.6947C103.637 34.6426 103.86 35.3944 104.307 35.95C104.754 36.4948 105.391 36.7672 106.219 36.7672C106.491 36.7672 106.77 36.7235 107.052 36.6364C107.347 36.5492 107.641 36.3967 107.935 36.1788C108.055 36.0917 108.17 36.0535 108.279 36.0644C108.387 36.0753 108.48 36.1189 108.556 36.1951C108.632 36.2606 108.681 36.3477 108.703 36.4567C108.735 36.5656 108.735 36.6745 108.703 36.7835C108.67 36.8815 108.599 36.9688 108.49 37.045C108.142 37.3283 107.76 37.5353 107.347 37.666C106.933 37.7858 106.529 37.8458 106.138 37.8458ZM110.99 37.7804C110.772 37.7804 110.608 37.7205 110.499 37.6006C110.39 37.4699 110.335 37.2901 110.335 37.0613V30.3771C110.335 30.1483 110.39 29.974 110.499 29.8541C110.608 29.7342 110.772 29.6743 110.99 29.6743C111.197 29.6743 111.36 29.7342 111.48 29.8541C111.599 29.974 111.659 30.1483 111.659 30.3771V37.0613C111.659 37.2901 111.599 37.4699 111.48 37.6006C111.371 37.7205 111.207 37.7804 110.99 37.7804ZM110.99 27.8439C110.717 27.8439 110.504 27.7731 110.352 27.6315C110.199 27.4789 110.123 27.2774 110.123 27.0267C110.123 26.7653 110.199 26.5692 110.352 26.4384C110.504 26.2967 110.717 26.226 110.99 26.226C111.272 26.226 111.485 26.2967 111.626 26.4384C111.779 26.5692 111.856 26.7653 111.856 27.0267C111.856 27.2774 111.779 27.4789 111.626 27.6315C111.485 27.7731 111.272 27.8439 110.99 27.8439ZM116.635 37.8458C116.09 37.8458 115.599 37.7423 115.164 37.5353C114.739 37.3174 114.401 37.0232 114.151 36.6528C113.9 36.2823 113.774 35.8683 113.774 35.4107C113.774 34.8224 113.922 34.3593 114.216 34.0215C114.521 33.6838 115.017 33.4441 115.703 33.3024C116.4 33.1608 117.348 33.09 118.547 33.09H119.282V33.9562H118.563C117.681 33.9562 116.983 33.9997 116.471 34.0869C115.97 34.1632 115.616 34.2994 115.409 34.4955C115.213 34.6916 115.115 34.9694 115.115 35.329C115.115 35.7757 115.267 36.1407 115.572 36.424C115.888 36.7072 116.313 36.8489 116.847 36.8489C117.283 36.8489 117.664 36.7453 117.991 36.5383C118.329 36.3313 118.59 36.0481 118.776 35.6885C118.972 35.329 119.07 34.9149 119.07 34.4465V32.5833C119.07 31.9078 118.933 31.423 118.661 31.1288C118.389 30.8238 117.942 30.6713 117.321 30.6713C116.94 30.6713 116.558 30.7203 116.177 30.8183C115.796 30.9164 115.392 31.0744 114.967 31.2923C114.815 31.3685 114.684 31.3958 114.575 31.374C114.467 31.3413 114.379 31.2814 114.314 31.1942C114.249 31.107 114.211 31.009 114.199 30.9C114.188 30.7802 114.21 30.6658 114.265 30.5568C114.33 30.4478 114.429 30.3607 114.559 30.2953C115.038 30.0556 115.513 29.8813 115.981 29.7724C116.449 29.6634 116.896 29.609 117.321 29.609C118.008 29.609 118.574 29.7233 119.021 29.9522C119.467 30.1701 119.799 30.5078 120.017 30.9654C120.235 31.4121 120.345 31.9896 120.345 32.6978V37.1267C120.345 37.3446 120.29 37.5135 120.181 37.6333C120.083 37.7532 119.936 37.8131 119.74 37.8131C119.533 37.8131 119.375 37.7532 119.266 37.6333C119.157 37.5135 119.102 37.3446 119.102 37.1267V35.8519H119.249C119.163 36.266 118.993 36.6201 118.743 36.9142C118.503 37.2084 118.204 37.4372 117.844 37.6006C117.484 37.7641 117.081 37.8458 116.635 37.8458ZM125.219 37.8458C124.435 37.8458 123.836 37.6061 123.422 37.1267C123.007 36.6473 122.8 35.9609 122.8 35.0675V26.7326C122.8 26.5147 122.855 26.3512 122.964 26.2423C123.073 26.1224 123.236 26.0625 123.454 26.0625C123.661 26.0625 123.824 26.1224 123.945 26.2423C124.064 26.3512 124.124 26.5147 124.124 26.7326V34.9694C124.124 35.5578 124.238 35.999 124.467 36.2932C124.707 36.5765 125.056 36.7181 125.513 36.7181C125.611 36.7181 125.699 36.7127 125.775 36.7018C125.851 36.6909 125.927 36.6854 126.004 36.6854C126.124 36.6745 126.205 36.7018 126.249 36.7672C126.303 36.8325 126.331 36.9633 126.331 37.1594C126.331 37.3555 126.287 37.5026 126.199 37.6006C126.113 37.6987 125.971 37.7641 125.775 37.7967C125.688 37.8076 125.595 37.8185 125.497 37.8294C125.399 37.8403 125.306 37.8458 125.219 37.8458Z" fill="white"/>
<path d="M56.7252 32.1987H53.1489V32.8511H56.7252V32.1987Z" fill="white"/>
<path d="M130.063 32.851H133.028C133.198 32.851 133.333 32.7054 133.333 32.5255C133.333 32.3456 133.196 32.2 133.028 32.2H130.063C129.894 32.2 129.758 32.3456 129.758 32.5255C129.758 32.7054 129.895 32.851 130.063 32.851Z" fill="white"/>
<path d="M30.0276 15.5063L26.1897 20.3119L28.5633 25.9182C28.5978 26.0005 28.5706 26.0968 28.4991 26.145C28.4263 26.1919 28.3338 26.1754 28.2808 26.1057L18.5154 13.3005L3.89941 32.4569C6.77006 40.9899 14.4099 47.0928 23.3857 47.0928C32.4331 47.0928 40.1198 40.8911 42.9362 32.253L30.0276 15.5063ZM14.4543 25.889L5.1096 33.1335L18.3995 16.4705V16.4439L18.4093 16.4578L18.4192 16.4439V16.4705L25.0462 24.9794L20.5373 23.2044L17.51 28.0353L14.4543 25.889ZM28.2376 35.7447L22.9688 38.5712L20.1536 45.7917L20.1647 30.616C20.1438 30.018 20.5743 29.5126 21.1331 29.4758L30.3459 29.4998L22.9195 33.8164L28.2376 35.7447ZM31.2168 22.8661L30.0893 20.5843L27.7577 20.7756L30.0781 18.0884L36.319 25.6546L31.2168 22.8661Z" fill="white"/>
</g>
<defs>
<linearGradient id="paint0_linear_4007_535" x1="23.3845" y1="2.8171" x2="23.3845" y2="29.9602" gradientUnits="userSpaceOnUse">
<stop offset="0.2312" stop-color="#662F90"/>
<stop offset="0.5246" stop-color="#42348F"/>
<stop offset="0.6859" stop-color="#2E368F"/>
<stop offset="0.7214" stop-color="#2D4799"/>
<stop offset="0.8146" stop-color="#2D6FB4"/>
<stop offset="0.8917" stop-color="#2C8ECB"/>
<stop offset="0.9489" stop-color="#2AA2DB"/>
<stop offset="0.9799" stop-color="#29AAE2"/>
</linearGradient>
<clipPath id="clip0_4007_535">
<rect width="133.333" height="50" fill="white"/>
</clipPath>
</defs>
</svg>
