<svg width="52" height="52" viewBox="0 0 52 52" fill="none" xmlns="http://www.w3.org/2000/svg">
<circle cx="26" cy="26" r="25" fill="url(#paint0_linear_4020_1155)" fill-opacity="0.2" stroke="url(#paint1_linear_4020_1155)" stroke-width="2"/>
<path d="M26 28.25C27.2426 28.25 28.25 27.2426 28.25 26C28.25 24.7574 27.2426 23.75 26 23.75C24.7574 23.75 23.75 24.7574 23.75 26C23.75 27.2426 24.7574 28.25 26 28.25Z" fill="url(#paint2_linear_4020_1155)"/>
<path d="M36.0496 28.0625L36.0275 28.0447L34.5481 26.8845C34.4545 26.8104 34.3797 26.7151 34.33 26.6065C34.2803 26.4979 34.2571 26.379 34.2622 26.2597V25.7178C34.2575 25.5992 34.281 25.4812 34.3308 25.3735C34.3806 25.2658 34.4553 25.1714 34.5486 25.0981L36.0275 23.9375L36.0496 23.9197C36.2776 23.7297 36.4307 23.4647 36.4814 23.1723C36.532 22.8798 36.477 22.5788 36.3261 22.3231L34.3241 18.8591C34.3218 18.8558 34.3197 18.8523 34.318 18.8488C34.1663 18.5966 33.9311 18.4056 33.6532 18.3089C33.3754 18.2121 33.0724 18.2157 32.7969 18.3191L32.7805 18.3252L31.0414 19.025C30.9317 19.0694 30.8129 19.087 30.695 19.0765C30.5771 19.066 30.4633 19.0276 30.3631 18.9645C30.2094 18.8677 30.0531 18.7761 29.8944 18.6898C29.7915 18.634 29.7031 18.5548 29.6364 18.4586C29.5697 18.3623 29.5266 18.2518 29.5105 18.1358L29.2485 16.28L29.2428 16.2462C29.1858 15.9588 29.0315 15.6998 28.806 15.5127C28.5805 15.3255 28.2974 15.2218 28.0044 15.2188H23.9956C23.6985 15.2197 23.4112 15.3255 23.1844 15.5175C22.9576 15.7095 22.8058 15.9754 22.7558 16.2683L22.7516 16.2945L22.4905 18.1541C22.4745 18.2697 22.4317 18.38 22.3655 18.4762C22.2994 18.5724 22.2117 18.6518 22.1094 18.7081C21.9502 18.7939 21.7939 18.8849 21.6406 18.9809C21.5406 19.0436 21.4272 19.0817 21.3096 19.0921C21.192 19.1024 21.0737 19.0847 20.9642 19.0405L19.2238 18.3373L19.2074 18.3308C18.9315 18.2273 18.6281 18.2238 18.3499 18.321C18.0717 18.4181 17.8364 18.6097 17.6849 18.8623L17.6788 18.8727L15.6739 22.3391C15.5228 22.595 15.4677 22.8963 15.5183 23.1891C15.569 23.482 15.7222 23.7472 15.9505 23.9375L15.9725 23.9553L17.4519 25.1155C17.5456 25.1896 17.6203 25.2849 17.6701 25.3935C17.7198 25.5021 17.743 25.621 17.7378 25.7403V26.2822C17.7425 26.4008 17.719 26.5188 17.6692 26.6265C17.6194 26.7342 17.5448 26.8286 17.4514 26.9019L15.9725 28.0625L15.9505 28.0803C15.7224 28.2703 15.5694 28.5353 15.5187 28.8277C15.468 29.1202 15.523 29.4212 15.6739 29.6769L17.676 33.1409C17.6783 33.1442 17.6803 33.1477 17.6821 33.1512C17.8338 33.4034 18.069 33.5944 18.3468 33.6911C18.6247 33.7879 18.9277 33.7843 19.2031 33.6809L19.2196 33.6748L20.9572 32.975C21.067 32.9306 21.1857 32.913 21.3036 32.9235C21.4216 32.934 21.5353 32.9724 21.6355 33.0355C21.7892 33.1327 21.9455 33.2242 22.1042 33.3102C22.2072 33.366 22.2955 33.4452 22.3622 33.5414C22.4289 33.6377 22.472 33.7482 22.4881 33.8642L22.7488 35.72L22.7544 35.7537C22.8115 36.0417 22.9662 36.3011 23.1923 36.4882C23.4184 36.6754 23.7021 36.7789 23.9956 36.7812H28.0044C28.3016 36.7803 28.5888 36.6745 28.8157 36.4825C29.0425 36.2905 29.1942 36.0246 29.2442 35.7317L29.2485 35.7055L29.5096 33.8459C29.5258 33.7301 29.569 33.6196 29.6355 33.5234C29.7021 33.4272 29.7903 33.3479 29.893 33.2919C30.0533 33.2056 30.2099 33.1142 30.3617 33.0191C30.4617 32.9564 30.5752 32.9183 30.6928 32.9079C30.8104 32.8976 30.9287 32.9153 31.0381 32.9595L32.7786 33.6603L32.795 33.6669C33.0709 33.7705 33.3744 33.7741 33.6526 33.677C33.9308 33.5798 34.1661 33.3881 34.3175 33.1353C34.3194 33.1318 34.3214 33.1283 34.3236 33.125L36.3256 29.6614C36.477 29.4055 36.5324 29.1041 36.4818 28.8112C36.4312 28.5182 36.278 28.2528 36.0496 28.0625ZM29.7458 26.1763C29.7117 26.9021 29.4674 27.6025 29.0426 28.1921C28.6178 28.7817 28.0308 29.2352 27.3531 29.4974C26.6754 29.7597 25.936 29.8193 25.225 29.6692C24.514 29.519 23.862 29.1655 23.3481 28.6516C22.8343 28.1377 22.4809 27.4856 22.3308 26.7746C22.1807 26.0635 22.2405 25.3242 22.5028 24.6465C22.7651 23.9688 23.2186 23.3819 23.8083 22.9572C24.398 22.5325 25.0983 22.2883 25.8242 22.2542C26.3454 22.2313 26.8656 22.317 27.3518 22.506C27.838 22.695 28.2796 22.9831 28.6484 23.352C29.0172 23.7209 29.3053 24.1624 29.4942 24.6487C29.6831 25.1349 29.7688 25.6551 29.7458 26.1763Z" fill="url(#paint3_linear_4020_1155)"/>
<defs>
<linearGradient id="paint0_linear_4020_1155" x1="0" y1="26" x2="52" y2="26" gradientUnits="userSpaceOnUse">
<stop stop-color="#4776E6"/>
<stop offset="1" stop-color="#8E54E9"/>
</linearGradient>
<linearGradient id="paint1_linear_4020_1155" x1="0" y1="26" x2="52" y2="26" gradientUnits="userSpaceOnUse">
<stop stop-color="#4776E6"/>
<stop offset="1" stop-color="#8E54E9"/>
</linearGradient>
<linearGradient id="paint2_linear_4020_1155" x1="23.75" y1="26" x2="28.25" y2="26" gradientUnits="userSpaceOnUse">
<stop stop-color="#4776E6"/>
<stop offset="1" stop-color="#8E54E9"/>
</linearGradient>
<linearGradient id="paint3_linear_4020_1155" x1="15.5" y1="26" x2="36.5001" y2="26" gradientUnits="userSpaceOnUse">
<stop stop-color="#4776E6"/>
<stop offset="1" stop-color="#8E54E9"/>
</linearGradient>
</defs>
</svg>
