<svg width="50" height="50" viewBox="0 0 50 50" fill="none" xmlns="http://www.w3.org/2000/svg">
<circle opacity="0.3" cx="25" cy="25" r="24.5" stroke="url(#paint0_linear_4007_617)"/>
<g clip-path="url(#clip0_4007_617)">
<g clip-path="url(#clip1_4007_617)">
<path fill-rule="evenodd" clip-rule="evenodd" d="M21.6555 13.4732C19.3356 14.148 17.2732 15.5067 15.7376 17.372C14.2021 19.2373 13.2647 21.5223 13.0481 23.9286H18.5338C18.8518 20.267 19.9135 16.7087 21.6538 13.4715L21.6555 13.4732ZM18.5338 26.0715H13.0481C13.2643 28.4778 14.2012 30.7631 15.7365 32.6287C17.2717 34.4942 19.334 35.8534 21.6538 36.5286C19.9135 33.2913 18.8518 29.7331 18.5338 26.0715ZM24.4035 36.9863C22.3237 33.6906 21.0493 29.9514 20.6835 26.0715H29.315C28.9491 29.9514 27.6747 33.6906 25.595 36.9863C25.198 37.0056 24.8004 37.0056 24.4035 36.9863ZM28.3464 36.5269C30.6659 35.8518 32.728 34.4929 34.2633 32.6276C35.7985 30.7624 36.7356 28.4775 36.9521 26.0715H31.4664C31.1484 29.7331 30.0867 33.2913 28.3464 36.5286V36.5269ZM31.4664 23.9286H36.9521C36.7359 21.5222 35.799 19.237 34.2637 17.3714C32.7284 15.5058 30.6662 14.1467 28.3464 13.4715C30.0868 16.7087 31.1484 20.267 31.4664 23.9286ZM24.4035 13.0137C24.801 12.9943 25.1992 12.9943 25.5967 13.0137C27.6758 16.3096 28.9496 20.0488 29.315 23.9286H20.6852C21.0572 20.0252 22.3344 16.2829 24.4035 13.0137Z" fill="url(#paint1_linear_4007_617)"/>
</g>
</g>
<defs>
<linearGradient id="paint0_linear_4007_617" x1="0" y1="25" x2="50" y2="25" gradientUnits="userSpaceOnUse">
<stop stop-color="#4776E6"/>
<stop offset="1" stop-color="#8E54E9"/>
</linearGradient>
<linearGradient id="paint1_linear_4007_617" x1="13.0481" y1="25" x2="36.9521" y2="25" gradientUnits="userSpaceOnUse">
<stop stop-color="#4776E6"/>
<stop offset="1" stop-color="#8E54E9"/>
</linearGradient>
<clipPath id="clip0_4007_617">
<rect width="24" height="24" fill="white" transform="translate(13 13)"/>
</clipPath>
<clipPath id="clip1_4007_617">
<rect width="24" height="24" fill="white" transform="translate(13 13)"/>
</clipPath>
</defs>
</svg>
