<svg width="50" height="50" viewBox="0 0 50 50" fill="none" xmlns="http://www.w3.org/2000/svg">
<circle opacity="0.3" cx="25" cy="25" r="24.5" stroke="url(#paint0_linear_4007_592)"/>
<g clip-path="url(#clip0_4007_592)">
<path fill-rule="evenodd" clip-rule="evenodd" d="M34.84 19.056C34.8836 18.7913 34.8555 18.5198 34.7585 18.2697C34.6615 18.0196 34.4992 17.8001 34.2885 17.634C34.0778 17.468 33.8265 17.3614 33.5606 17.3256C33.2948 17.2897 33.0242 17.3257 32.777 17.43L15.677 24.63C14.485 25.132 14.424 26.856 15.677 27.376C16.9177 27.8934 18.1765 28.3664 19.451 28.794C20.619 29.18 21.893 29.537 22.914 29.638C23.193 29.972 23.544 30.294 23.902 30.588C24.449 31.038 25.107 31.501 25.787 31.945C27.149 32.835 28.66 33.686 29.678 34.24C30.895 34.9 32.352 34.14 32.57 32.813L34.84 19.056ZM17.594 25.993L32.718 19.625L30.6 32.465C29.601 31.922 28.162 31.109 26.88 30.271C26.2892 29.8916 25.7187 29.4814 25.171 29.042C25.0246 28.9224 24.8825 28.7977 24.745 28.668L28.706 24.708C28.8937 24.5205 28.9991 24.2661 28.9992 24.0008C28.9993 23.7356 28.894 23.4811 28.7065 23.2935C28.519 23.1059 28.2647 23.0004 27.9994 23.0003C27.7341 23.0002 27.4797 23.1055 27.292 23.293L22.955 27.63C22.221 27.536 21.199 27.264 20.077 26.894C19.2417 26.6157 18.4141 26.315 17.595 25.992L17.594 25.993Z" fill="url(#paint1_linear_4007_592)"/>
</g>
<defs>
<linearGradient id="paint0_linear_4007_592" x1="0" y1="25" x2="50" y2="25" gradientUnits="userSpaceOnUse">
<stop stop-color="#4776E6"/>
<stop offset="1" stop-color="#8E54E9"/>
</linearGradient>
<linearGradient id="paint1_linear_4007_592" x1="14.76" y1="25.8971" x2="34.86" y2="25.8971" gradientUnits="userSpaceOnUse">
<stop stop-color="#4776E6"/>
<stop offset="1" stop-color="#8E54E9"/>
</linearGradient>
<clipPath id="clip0_4007_592">
<rect width="24" height="24" fill="white" transform="translate(13 13)"/>
</clipPath>
</defs>
</svg>
