<svg width="50" height="50" viewBox="0 0 50 50" fill="none" xmlns="http://www.w3.org/2000/svg">
<circle opacity="0.3" cx="25" cy="25" r="24.5" stroke="white"/>
<g clip-path="url(#clip0_4019_1125)">
<path fill-rule="evenodd" clip-rule="evenodd" d="M34.84 19.0561C34.8836 18.7914 34.8555 18.5198 34.7585 18.2697C34.6615 18.0196 34.4992 17.8001 34.2885 17.6341C34.0778 17.468 33.8265 17.3615 33.5606 17.3256C33.2948 17.2897 33.0242 17.3258 32.777 17.4301L15.677 24.6301C14.485 25.1321 14.424 26.8561 15.677 27.3761C16.9177 27.8935 18.1765 28.3665 19.451 28.7941C20.619 29.1801 21.893 29.5371 22.914 29.6381C23.193 29.9721 23.544 30.2941 23.902 30.5881C24.449 31.0381 25.107 31.5011 25.787 31.9451C27.149 32.8351 28.66 33.6861 29.678 34.2401C30.895 34.9001 32.352 34.1401 32.57 32.8131L34.84 19.0561ZM17.594 25.9931L32.718 19.6251L30.6 32.4651C29.601 31.9221 28.162 31.1091 26.88 30.2711C26.2892 29.8917 25.7187 29.4815 25.171 29.0421C25.0246 28.9225 24.8825 28.7977 24.745 28.6681L28.706 24.7081C28.8937 24.5205 28.9991 24.2662 28.9992 24.0009C28.9993 23.7356 28.894 23.4812 28.7065 23.2936C28.519 23.1059 28.2647 23.0004 27.9994 23.0003C27.7341 23.0003 27.4797 23.1055 27.292 23.2931L22.955 27.6301C22.221 27.5361 21.199 27.2641 20.077 26.8941C19.2417 26.6158 18.4141 26.315 17.595 25.9921L17.594 25.9931Z" fill="white"/>
</g>
<defs>
<clipPath id="clip0_4019_1125">
<rect width="24" height="24" fill="white" transform="translate(13 13)"/>
</clipPath>
</defs>
</svg>
