<svg width="17" height="14" viewBox="0 0 17 14" fill="none" xmlns="http://www.w3.org/2000/svg">
<path d="M7.9751 4.8695H9.3278V3.5168H7.9751M8.65145 12.3094C5.66874 12.3094 3.24064 9.88126 3.24064 6.89855C3.24064 3.91584 5.66874 1.48774 8.65145 1.48774C11.6342 1.48774 14.0623 3.91584 14.0623 6.89855C14.0623 9.88126 11.6342 12.3094 8.65145 12.3094ZM8.65145 0.13504C7.76325 0.13504 6.88375 0.309984 6.06317 0.649882C5.24258 0.98978 4.49698 1.48798 3.86893 2.11603C2.60052 3.38443 1.88794 5.10476 1.88794 6.89855C1.88794 8.69234 2.60052 10.4127 3.86893 11.6811C4.49698 12.3091 5.24258 12.8073 6.06317 13.1472C6.88375 13.4871 7.76325 13.6621 8.65145 13.6621C10.4452 13.6621 12.1656 12.9495 13.434 11.6811C14.7024 10.4127 15.415 8.69234 15.415 6.89855C15.415 6.01035 15.24 5.13085 14.9001 4.31027C14.5602 3.48968 14.062 2.74408 13.434 2.11603C12.8059 1.48798 12.0603 0.98978 11.2397 0.649882C10.4191 0.309984 9.53965 0.13504 8.65145 0.13504ZM7.9751 10.2803H9.3278V6.2222H7.9751V10.2803Z" fill="url(#paint0_linear_1_1113)"/>
<defs>
<linearGradient id="paint0_linear_1_1113" x1="1.88794" y1="6.89855" x2="15.415" y2="6.89855" gradientUnits="userSpaceOnUse">
<stop stop-color="#4776E6"/>
<stop offset="1" stop-color="#8E54E9"/>
</linearGradient>
</defs>
</svg>
