<svg width="91" height="90" viewBox="0 0 91 90" fill="none" xmlns="http://www.w3.org/2000/svg">
<circle cx="45.5" cy="45" r="45" fill="url(#paint0_linear_4007_372)"/>
<g clip-path="url(#clip0_4007_372)">
<path d="M50.4604 45.1219C50.0112 45.1219 49.6459 45.4874 49.6459 45.9366V48.6592C49.6459 49.1084 50.0113 49.4738 50.4604 49.4738H61.5V45.122H50.4604V45.1219ZM51.8342 48.5536C51.1406 48.5536 50.5783 47.9914 50.5783 47.2978C50.5783 46.6042 51.1406 46.0419 51.8342 46.0419C52.5278 46.0419 53.0901 46.6041 53.0901 47.2978C53.09 47.9914 52.5277 48.5536 51.8342 48.5536Z" fill="white"/>
<path d="M50.4604 43.2209H61.5V38.5594C61.5 37.0619 60.2817 35.8438 58.7844 35.8438H58.4041H37.8564H32.2156C30.7183 35.8438 29.5 37.0619 29.5 38.5594V57.9373C29.5 59.4348 30.7183 60.653 32.2156 60.653H58.7843C60.2818 60.653 61.4999 59.4348 61.4999 57.9373V51.3748H50.4604C48.963 51.3748 47.7448 50.1566 47.7448 48.6592V45.9366C47.7448 44.4391 48.9631 43.2209 50.4604 43.2209Z" fill="white"/>
<path d="M56.089 29.347L43.1917 33.9426H57.7266L56.089 29.347Z" fill="white"/>
</g>
<defs>
<linearGradient id="paint0_linear_4007_372" x1="0.5" y1="45" x2="90.5" y2="45" gradientUnits="userSpaceOnUse">
<stop stop-color="#4776E6"/>
<stop offset="1" stop-color="#8E54E9"/>
</linearGradient>
<clipPath id="clip0_4007_372">
<rect width="32" height="32" fill="white" transform="translate(29.5 29)"/>
</clipPath>
</defs>
</svg>
