<svg width="50" height="50" viewBox="0 0 50 50" fill="none" xmlns="http://www.w3.org/2000/svg">
<circle opacity="0.3" cx="25" cy="25" r="24.5" stroke="white"/>
<g clip-path="url(#clip0_4019_1150)">
<g clip-path="url(#clip1_4019_1150)">
<path fill-rule="evenodd" clip-rule="evenodd" d="M21.6554 13.4732C19.3355 14.148 17.2731 15.5067 15.7375 17.372C14.2019 19.2373 13.2646 21.5223 13.048 23.9286H18.5337C18.8517 20.267 19.9134 16.7087 21.6537 13.4715L21.6554 13.4732ZM18.5337 26.0715H13.048C13.2642 28.4778 14.2011 30.7631 15.7364 32.6287C17.2716 34.4942 19.3339 35.8534 21.6537 36.5286C19.9134 33.2913 18.8517 29.7331 18.5337 26.0715ZM24.4034 36.9863C22.3236 33.6906 21.0492 29.9514 20.6834 26.0715H29.3148C28.949 29.9514 27.6746 33.6906 25.5948 36.9863C25.1979 37.0056 24.8003 37.0056 24.4034 36.9863ZM28.3463 36.5269C30.6658 35.8518 32.7279 34.4929 34.2631 32.6276C35.7984 30.7624 36.7355 28.4775 36.952 26.0715H31.4663C31.1482 29.7331 30.0866 33.2913 28.3463 36.5286V36.5269ZM31.4663 23.9286H36.952C36.7358 21.5222 35.7989 19.237 34.2636 17.3714C32.7283 15.5058 30.6661 14.1467 28.3463 13.4715C30.0866 16.7087 31.1483 20.267 31.4663 23.9286ZM24.4034 13.0137C24.8009 12.9943 25.1991 12.9943 25.5965 13.0137C27.6757 16.3096 28.9495 20.0488 29.3148 23.9286H20.6851C21.0571 20.0252 22.3343 16.2829 24.4034 13.0137Z" fill="white"/>
</g>
</g>
<defs>
<clipPath id="clip0_4019_1150">
<rect width="24" height="24" fill="white" transform="translate(13 13)"/>
</clipPath>
<clipPath id="clip1_4019_1150">
<rect width="24" height="24" fill="white" transform="translate(13 13)"/>
</clipPath>
</defs>
</svg>
