<svg width="50" height="50" viewBox="0 0 50 50" fill="none" xmlns="http://www.w3.org/2000/svg">
<circle opacity="0.3" cx="25" cy="25" r="24.5" stroke="white"/>
<g clip-path="url(#clip0_4019_1136)">
<g clip-path="url(#clip1_4019_1136)">
<path fill-rule="evenodd" clip-rule="evenodd" d="M25 17C25.855 17 26.732 17.022 27.582 17.058L28.586 17.106L29.547 17.163L30.447 17.224L31.269 17.288C32.161 17.3563 33.0004 17.7369 33.6395 18.363C34.2786 18.9891 34.6764 19.8205 34.763 20.711L34.803 21.136L34.878 22.046C34.948 22.989 35 24.017 35 25C35 25.983 34.948 27.011 34.878 27.954L34.803 28.864C34.79 29.01 34.777 29.151 34.763 29.289C34.6764 30.1796 34.2784 31.0112 33.6391 31.6373C32.9999 32.2634 32.1602 32.6439 31.268 32.712L30.448 32.775L29.548 32.837L28.586 32.894L27.582 32.942C26.7218 32.9794 25.861 32.9987 25 33C24.139 32.9987 23.2782 32.9794 22.418 32.942L21.414 32.894L20.453 32.837L19.553 32.775L18.731 32.712C17.839 32.6437 16.9996 32.2631 16.3605 31.637C15.7214 31.0109 15.3236 30.1795 15.237 29.289L15.197 28.864L15.122 27.954C15.0455 26.9711 15.0048 25.9858 15 25C15 24.017 15.052 22.989 15.122 22.046L15.197 21.136C15.21 20.99 15.223 20.849 15.237 20.711C15.3235 19.8207 15.7212 18.9894 16.3601 18.3633C16.999 17.7373 17.8381 17.3565 18.73 17.288L19.551 17.224L20.451 17.163L21.413 17.106L22.417 17.058C23.2775 17.0206 24.1387 17.0013 25 17ZM23 22.575V27.425C23 27.887 23.5 28.175 23.9 27.945L28.1 25.52C28.1914 25.4674 28.2673 25.3916 28.3201 25.3003C28.3729 25.209 28.4007 25.1055 28.4007 25C28.4007 24.8945 28.3729 24.791 28.3201 24.6997C28.2673 24.6084 28.1914 24.5326 28.1 24.48L23.9 22.056C23.8088 22.0033 23.7053 21.9756 23.5999 21.9756C23.4945 21.9756 23.3911 22.0034 23.2998 22.0561C23.2086 22.1088 23.1329 22.1846 23.0802 22.2759C23.0276 22.3671 22.9999 22.4706 23 22.576V22.575Z" fill="white"/>
</g>
</g>
<defs>
<clipPath id="clip0_4019_1136">
<rect width="24" height="24" fill="white" transform="translate(13 13)"/>
</clipPath>
<clipPath id="clip1_4019_1136">
<rect width="24" height="24" fill="white" transform="translate(13 13)"/>
</clipPath>
</defs>
</svg>
