<svg width="24" height="25" viewBox="0 0 24 25" fill="none" xmlns="http://www.w3.org/2000/svg">
<path d="M21.5459 8.43949C21.2646 8.15828 20.8832 8.00031 20.4854 8.00031C20.0877 8.00031 19.7062 8.15828 19.4249 8.43949L11.9999 15.8645L4.57493 8.43949C4.29203 8.16625 3.91312 8.01506 3.51983 8.01848C3.12653 8.02189 2.75031 8.17965 2.4722 8.45776C2.19409 8.73587 2.03634 9.11209 2.03292 9.50539C2.0295 9.89868 2.18069 10.2776 2.45393 10.5605L10.9394 19.046C11.2207 19.3272 11.6022 19.4852 11.9999 19.4852C12.3977 19.4852 12.7791 19.3272 13.0604 19.046L21.5459 10.5605C21.8271 10.2792 21.9851 9.89773 21.9851 9.49999C21.9851 9.10224 21.8271 8.72078 21.5459 8.43949Z" fill="white"/>
</svg>
