<svg xmlns="http://www.w3.org/2000/svg" width="11" height="11" viewBox="0 0 11 11" fill="none">
  <path d="M0.293 1.29299C0.480528 1.10552 0.734836 1.0002 1 1.0002C1.26516 1.0002 1.51947 1.10552 1.707 1.29299L5 4.58599L8.293 1.29299C8.38525 1.19748 8.49559 1.1213 8.6176 1.06889C8.7396 1.01648 8.87082 0.988893 9.0036 0.987739C9.13638 0.986585 9.26806 1.01189 9.39095 1.06217C9.51385 1.11245 9.6255 1.1867 9.71939 1.28059C9.81329 1.37449 9.88754 1.48614 9.93782 1.60904C9.9881 1.73193 10.0134 1.86361 10.0123 1.99639C10.0111 2.12917 9.98351 2.26039 9.9311 2.38239C9.87869 2.5044 9.80251 2.61474 9.707 2.70699L6.414 5.99999L9.707 9.29299C9.88916 9.48159 9.98995 9.73419 9.98767 9.99639C9.9854 10.2586 9.88023 10.5094 9.69482 10.6948C9.50941 10.8802 9.2586 10.9854 8.9964 10.9877C8.7342 10.9899 8.4816 10.8891 8.293 10.707L5 7.41399L1.707 10.707C1.5184 10.8891 1.2658 10.9899 1.0036 10.9877C0.741402 10.9854 0.49059 10.8802 0.305182 10.6948C0.119773 10.5094 0.0146042 10.2586 0.0123258 9.99639C0.0100473 9.73419 0.110842 9.48159 0.293 9.29299L3.586 5.99999L0.293 2.70699C0.105529 2.51946 0.000213623 2.26515 0.000213623 1.99999C0.000213623 1.73483 0.105529 1.48052 0.293 1.29299Z" fill="white"/>
</svg>