<svg width="17" height="17" viewBox="0 0 17 17" fill="none" xmlns="http://www.w3.org/2000/svg">
<g clip-path="url(#clip0_27_378)">
<path fill-rule="evenodd" clip-rule="evenodd" d="M10.2695 3.15286C10.7576 3.15286 11.2732 3.32344 11.7456 3.51172L12.0913 3.65343C12.9179 3.99982 13.3824 4.72673 13.7426 5.52514C14.3271 6.82084 14.7332 8.54823 14.8736 9.86164C14.9405 10.4849 14.9569 11.1121 14.8369 11.5339C14.7076 11.9846 14.2681 12.3035 13.841 12.5541L13.6297 12.6741L13.4106 12.7962C13.2978 12.8591 13.1817 12.9215 13.0662 12.9825L12.7237 13.1596L12.2533 13.3938L11.8748 13.5801C11.7975 13.6218 11.7126 13.6476 11.6251 13.6558C11.5376 13.6641 11.4494 13.6547 11.3656 13.6282C11.2818 13.6017 11.2042 13.5587 11.1374 13.5016C11.0706 13.4446 11.0159 13.3747 10.9766 13.2961C10.9373 13.2175 10.9142 13.1318 10.9087 13.0441C10.9031 12.9565 10.9152 12.8686 10.9443 12.7856C10.9734 12.7027 11.0188 12.6265 11.0779 12.5615C11.137 12.4965 11.2085 12.444 11.2883 12.4071L11.8066 12.1513L11.4261 11.7517C10.5142 12.1257 9.4402 12.3376 8.29933 12.3376C7.15846 12.3376 6.0845 12.1263 5.17259 11.7517L4.79208 12.1506L5.31233 12.4065C5.38944 12.445 5.45821 12.4983 5.51471 12.5634C5.57121 12.6285 5.61433 12.704 5.64163 12.7858C5.66892 12.8676 5.67984 12.9539 5.67377 13.0399C5.6677 13.1258 5.64475 13.2098 5.60624 13.2869C5.56773 13.364 5.51441 13.4328 5.44932 13.4893C5.38424 13.5458 5.30866 13.5889 5.2269 13.6162C5.06179 13.6713 4.88155 13.6586 4.72582 13.5808L4.36893 13.4037C4.1052 13.2724 3.84081 13.1426 3.5797 13.0054L2.97088 12.6741L2.76029 12.5541C2.3332 12.3035 1.89299 11.9846 1.76441 11.5339C1.64369 11.1121 1.66075 10.4855 1.72701 9.86098C1.86741 8.54823 2.2735 6.82084 2.85804 5.52514C3.21822 4.72673 3.6827 3.99982 4.50932 3.65343C5.05778 3.42381 5.72236 3.15286 6.33118 3.15286C6.72678 3.15286 7.03774 3.51697 6.98067 3.90535C7.41724 3.84076 7.858 3.80852 8.29933 3.80891C8.75266 3.80891 9.1955 3.84172 9.62062 3.90601C9.60797 3.81284 9.61526 3.71805 9.642 3.62791C9.66874 3.53778 9.71432 3.45435 9.77572 3.38314C9.83713 3.31194 9.91295 3.25459 9.99818 3.2149C10.0834 3.1752 10.1754 3.15405 10.2695 3.15286ZM6.16716 7.41719C5.86267 7.41719 5.57065 7.53815 5.35534 7.75346C5.14003 7.96877 5.01908 8.26079 5.01908 8.56528C5.01908 8.86978 5.14003 9.1618 5.35534 9.37711C5.57065 9.59241 5.86267 9.71337 6.16716 9.71337C6.47166 9.71337 6.76368 9.59241 6.97899 9.37711C7.1943 9.1618 7.31525 8.86978 7.31525 8.56528C7.31525 8.26079 7.1943 7.96877 6.97899 7.75346C6.76368 7.53815 6.47166 7.41719 6.16716 7.41719ZM10.4315 7.41719C10.127 7.41719 9.83498 7.53815 9.61967 7.75346C9.40437 7.96877 9.28341 8.26079 9.28341 8.56528C9.28341 8.86978 9.40437 9.1618 9.61967 9.37711C9.83498 9.59241 10.127 9.71337 10.4315 9.71337C10.736 9.71337 11.028 9.59241 11.2433 9.37711C11.4586 9.1618 11.5796 8.86978 11.5796 8.56528C11.5796 8.26079 11.4586 7.96877 11.2433 7.75346C11.028 7.53815 10.736 7.41719 10.4315 7.41719Z" fill="url(#paint0_linear_27_378)"/>
</g>
<defs>
<linearGradient id="paint0_linear_27_378" x1="1.67538" y1="8.4058" x2="14.9256" y2="8.4058" gradientUnits="userSpaceOnUse">
<stop stop-color="#4776E6"/>
<stop offset="1" stop-color="#8E54E9"/>
</linearGradient>
<clipPath id="clip0_27_378">
<rect width="15.7452" height="15.7452" fill="white" transform="translate(0.426727 0.528656)"/>
</clipPath>
</defs>
</svg>
