<svg width="10" height="13" viewBox="0 0 10 13" fill="none" xmlns="http://www.w3.org/2000/svg">
<path d="M4.0115 0.03125L0 6.30775L4.537 8.53775L9.002 6.30575L5.0615 0.03125H4.0115ZM4.035 1.84975V4.02525L2.078 4.91325L4.035 1.84975ZM5.035 1.86975L6.944 4.90975L5.035 4.03375V1.86975ZM4.035 5.12325V7.17675L1.863 6.10825L4.035 5.12325ZM5.035 5.13475L7.158 6.10975L5.035 7.17025V5.13475ZM0.0350001 7.28725V8.54725L3.999 12.9688H5.071L9.035 8.54675V7.28675L4.535 9.59375L0.0350001 7.28725ZM2.2955 9.57025L4.035 10.4618V11.5098L2.2955 9.57025ZM6.7745 9.57025L5.035 11.5098V10.4618L6.7745 9.57025Z" fill="url(#paint0_linear_1_63)"/>
<defs>
<linearGradient id="paint0_linear_1_63" x1="0" y1="6.5" x2="9.035" y2="6.5" gradientUnits="userSpaceOnUse">
<stop stop-color="#4776E6"/>
<stop offset="1" stop-color="#8E54E9"/>
</linearGradient>
</defs>
</svg>
