<svg width="42" height="40" viewBox="0 0 42 40" fill="none" xmlns="http://www.w3.org/2000/svg">
<g clip-path="url(#clip0_1_363)">
<path fill-rule="evenodd" clip-rule="evenodd" d="M3.77037 3.41113H6.89717V7.58342C6.89717 8.74328 7.43683 9.76863 8.30754 10.4815C9.04292 11.0848 10.0216 11.4585 11.067 11.4585C12.1133 11.4585 13.092 11.0848 13.8282 10.4815C14.6981 9.76863 15.2377 8.74328 15.2377 7.58342V3.41113H21.5517V7.58342C21.5517 8.74328 22.0906 9.76863 22.9613 10.4815C23.6967 11.0848 24.6761 11.4585 25.7216 11.4585C26.7671 11.4585 27.7465 11.0848 28.4819 10.4815C29.3526 9.76863 29.8923 8.74328 29.8923 7.58342V3.41113H33.156C34.0871 3.41113 34.9345 3.79372 35.5498 4.40829C36.1652 5.02124 36.547 5.86939 36.547 6.80212V18.4201C36.0739 18.2374 35.5903 18.0833 35.0988 17.9586V13.2265H1.82841V32.9466C1.82841 34.4117 3.02774 35.6127 4.49448 35.6127H20.7157C20.959 36.1131 21.2356 36.5966 21.5437 37.0601H3.77037C2.84087 37.0601 1.99353 36.6791 1.37815 36.0645C0.761977 35.4467 0.380188 34.6002 0.380188 33.6707V6.80131C0.380188 5.8702 0.761977 5.02366 1.37574 4.40909C1.99192 3.79292 2.84007 3.41113 3.77037 3.41113ZM29.8826 38.1015C30.3151 38.2167 30.5721 38.6613 30.4569 39.0939C30.3409 39.5264 29.8963 39.7833 29.4646 39.6681C29.0887 39.5677 28.7191 39.4448 28.3579 39.3001C26.2862 38.4712 24.627 36.9779 23.5654 35.1398C22.3201 32.986 21.8981 30.357 22.5916 27.7667C23.2851 25.1771 24.9653 23.1127 27.1199 21.8683C29.2729 20.623 31.9027 20.2002 34.4931 20.8953C35.3984 21.1377 36.2401 21.5002 37.0045 21.9609C37.6144 22.3295 38.1816 22.7644 38.696 23.2577L38.6517 22.8284C38.6066 22.3846 38.9287 21.9875 39.3726 21.9424C39.8164 21.8973 40.2127 22.2203 40.2586 22.6641L40.4905 24.9049C40.4986 24.987 40.4946 25.0684 40.4785 25.1457C40.4446 25.5476 40.1136 25.8698 39.7004 25.8827L37.4491 25.9624C37.0045 25.9761 36.6316 25.6257 36.6179 25.1811C36.6042 24.7357 36.9538 24.3636 37.3984 24.3499L37.4886 24.3467C37.0875 23.9737 36.6453 23.6395 36.1676 23.3503C35.5297 22.9653 34.8281 22.6633 34.0742 22.4611C31.914 21.8828 29.7239 22.2339 27.9318 23.269C26.1364 24.3032 24.7373 26.0244 24.159 28.1847C23.5799 30.3449 23.9303 32.535 24.9661 34.3288C25.4808 35.222 26.1654 36.0178 26.9902 36.6622C27.811 37.3049 28.8758 37.8333 29.8826 38.1015ZM31.6039 25.1787H33.2221L33.1834 26.1984C33.864 26.2411 34.4584 26.3088 34.9683 26.403L34.5986 28.3772H32.6872C32.39 28.3772 32.1919 28.4239 32.0944 28.5173C31.9969 28.6108 31.9438 28.7896 31.9349 29.0522L32.738 29.1416C33.715 29.2519 34.3884 29.5024 34.7581 29.8939C35.127 30.2845 35.3122 30.7896 35.3122 31.4098C35.3122 32.03 35.2478 32.5253 35.1205 32.8942C34.9933 33.2631 34.8104 33.5458 34.5728 33.7416C34.1395 34.0726 33.5708 34.2643 32.866 34.3151L32.8274 35.6014H31.1834L31.235 34.3151C30.4279 34.2563 29.7441 34.1532 29.1835 34.009L29.5524 31.9832C30.258 32.1701 30.9966 32.2635 31.7698 32.2635C32.0928 32.2635 32.394 32.2466 32.6743 32.2128V31.6772L31.8842 31.5878C30.8645 31.4863 30.1855 31.1891 29.8456 30.6961C29.5483 30.2636 29.4001 29.6982 29.4001 29.0014C29.4001 28.0848 29.5886 27.4179 29.9672 27.0015C30.3449 26.585 30.8774 26.3297 31.566 26.2371L31.6039 25.1787ZM32.473 38.3754C31.3477 38.4696 31.5515 40.0805 32.56 39.9968C33.1343 39.9694 33.7593 39.8743 34.3175 39.735C35.3533 39.4756 34.9627 37.8994 33.922 38.1603C33.4428 38.2771 32.9651 38.3456 32.473 38.3754ZM36.5961 36.9529C35.7214 37.5659 36.6509 38.8965 37.5264 38.2836C38.0009 37.9574 38.4809 37.549 38.8812 37.1358C39.6166 36.4004 38.4938 35.2276 37.7157 36.0049C37.3935 36.3424 36.9811 36.6888 36.5961 36.9529ZM39.3685 33.5676C38.9336 34.5237 40.4019 35.2172 40.853 34.2248C41.1011 33.6634 41.267 33.1423 41.4217 32.5503C41.677 31.5314 40.1071 31.115 39.8429 32.1725C39.7028 32.6743 39.5812 33.0875 39.3685 33.5676ZM40.0032 29.2415C40.1732 30.2652 41.6198 30.1259 41.6198 29.1198L41.6134 29.032C41.5328 28.4344 41.4112 27.8834 41.2291 27.3067C40.8836 26.2701 39.3524 26.809 39.6835 27.8029C39.8316 28.2722 39.9386 28.7536 40.0032 29.2415ZM16.2792 25.7151H20.2598C19.7435 27.0893 19.4591 28.5778 19.4591 30.1323C19.4591 30.4215 19.4704 30.709 19.4898 30.9933H16.2792C15.9401 30.9933 15.6598 30.7155 15.6598 30.3755V26.3337C15.6598 25.9938 15.9385 25.7151 16.2792 25.7151ZM16.2792 17.1217H21.1361C21.4768 17.1217 21.7547 17.4012 21.7547 17.7403V21.7813C21.7547 22.1196 21.4752 22.3999 21.1361 22.3999H16.2792C15.9401 22.3999 15.6598 22.1212 15.6598 21.7813V17.7403C15.6598 17.3996 15.9385 17.1217 16.2792 17.1217ZM6.48236 17.1217H11.3393C11.68 17.1217 11.9587 17.4012 11.9587 17.7403V21.7813C11.9587 22.1196 11.6784 22.3999 11.3393 22.3999H6.48236C6.14326 22.3999 5.86377 22.1212 5.86377 21.7813V17.7403C5.86377 17.3996 6.14246 17.1217 6.48236 17.1217ZM26.0752 17.1217H30.9329C31.2205 17.1217 31.4629 17.3214 31.5322 17.5872C29.3099 17.671 27.2367 18.3323 25.4566 19.4245V17.7403C25.4566 17.3996 25.7353 17.1217 26.0752 17.1217ZM6.48236 25.7151H11.3393C11.68 25.7151 11.9587 25.9954 11.9587 26.3337V30.3755C11.9587 30.7138 11.6784 30.9933 11.3393 30.9933H6.48236C6.14326 30.9933 5.86377 30.7155 5.86377 30.3755V26.3337C5.86377 25.9938 6.14246 25.7151 6.48236 25.7151ZM24.0849 1.3419C24.0849 0.601679 24.8171 0 25.7216 0C26.6269 0 27.3591 0.601679 27.3591 1.3419V7.58342C27.3591 8.32363 26.6269 8.92531 25.7216 8.92531C24.8171 8.92531 24.0849 8.32363 24.0849 7.58342V1.3419ZM9.43035 1.3419C9.43035 0.601679 10.1625 0 11.067 0C11.9724 0 12.7045 0.601679 12.7045 1.3419V7.58342C12.7045 8.32363 11.9724 8.92531 11.067 8.92531C10.1625 8.92531 9.43035 8.32363 9.43035 7.58342V1.3419Z" fill="white"/>
</g>
<defs>
<clipPath id="clip0_1_363">
<rect width="41.2396" height="40" fill="white" transform="translate(0.380188)"/>
</clipPath>
</defs>
</svg>
