<svg width="58" height="58" viewBox="0 0 58 58" fill="none" xmlns="http://www.w3.org/2000/svg">
<path d="M28.8556 5.75299L23.1319 19.0767H17.4081C16.4581 19.0767 15.5319 19.148 14.6294 19.338L17.0044 13.638L17.0994 13.4242L17.2419 13.0442C17.3131 12.878 17.3606 12.7355 17.4319 12.6167C20.1869 6.22799 23.2744 4.23299 28.8556 5.75299Z" fill="white"/>
<path d="M44.9863 19.7126L44.9388 19.6889C43.5138 19.2851 42.0651 19.0714 40.5926 19.0714H25.7251L31.0688 6.65014L31.1401 6.48389C31.4726 6.60264 31.8288 6.76889 32.1851 6.88764L37.4338 9.09639C40.3551 10.3076 42.3976 11.5664 43.6563 13.0864C43.8701 13.3714 44.0601 13.6326 44.2501 13.9414C44.4638 14.2739 44.6301 14.6064 44.7251 14.9626C44.8201 15.1764 44.8913 15.3664 44.9388 15.5801C45.2951 16.7914 45.3188 18.1689 44.9863 19.7126Z" fill="white"/>
<path d="M30.2338 42.438H30.8276C31.5401 42.438 32.1338 41.7967 32.1338 41.013C32.1338 40.0155 31.8488 39.873 31.2313 39.6355L30.2338 39.2792V42.438Z" fill="white"/>
<path d="M43.9347 23.1107C42.866 22.802 41.7497 22.6357 40.586 22.6357H17.4059C15.7909 22.6357 14.2709 22.9445 12.8459 23.562C8.71342 25.3432 5.81592 29.452 5.81592 34.2257V38.857C5.81592 39.427 5.86342 39.9732 5.93467 40.5432C6.45717 48.0957 10.4947 52.1332 18.0472 52.632C18.5934 52.7032 19.1397 52.7507 19.7334 52.7507H38.2585C47.046 52.7507 51.6772 48.5707 52.1285 40.2582C52.1522 39.807 52.176 39.332 52.176 38.857V34.2257C52.176 28.977 48.6847 24.5595 43.9347 23.1107ZM32.036 37.3132C33.1285 37.6932 34.601 38.5007 34.601 41.0182C34.601 43.1795 32.9147 44.9132 30.8247 44.9132H30.231V45.4357C30.231 46.1245 29.6847 46.6707 28.996 46.6707C28.3072 46.6707 27.761 46.1245 27.761 45.4357V44.9132H27.5472C25.2672 44.9132 23.3909 42.9895 23.3909 40.6145C23.3909 39.9257 23.9372 39.3795 24.626 39.3795C25.3147 39.3795 25.861 39.9257 25.861 40.6145C25.861 41.612 26.621 42.4432 27.5472 42.4432H27.761V38.4295L25.956 37.7882C24.8635 37.4082 23.3909 36.6007 23.3909 34.0832C23.3909 31.922 25.0772 30.1882 27.1672 30.1882H27.761V29.6657C27.761 28.977 28.3072 28.4307 28.996 28.4307C29.6847 28.4307 30.231 28.977 30.231 29.6657V30.1882H30.4447C32.7247 30.1882 34.601 32.112 34.601 34.487C34.601 35.1757 34.0547 35.722 33.366 35.722C32.6772 35.722 32.131 35.1757 32.131 34.487C32.131 33.4895 31.371 32.6582 30.4447 32.6582H30.231V36.672L32.036 37.3132Z" fill="white"/>
<path d="M25.8643 34.0803C25.8643 35.0778 26.1493 35.2203 26.7668 35.4578L27.7643 35.8141V32.6553H27.1705C26.4343 32.6553 25.8643 33.2966 25.8643 34.0803Z" fill="white"/>
</svg>
