<svg width="62" height="58" viewBox="0 0 62 58" fill="none" xmlns="http://www.w3.org/2000/svg">
<g clip-path="url(#clip0_1_380)">
<path d="M45.2308 46.7051C44.8068 46.7051 44.3915 46.8255 44.0333 47.0525C43.6751 47.2794 43.3888 47.6035 43.2078 47.9869H39.6351V46.567L37.6289 47.6301V48.9852C37.6289 49.2615 37.7406 49.5114 37.922 49.6928C38.0146 49.7858 38.1247 49.8595 38.2459 49.9098C38.3672 49.9601 38.4971 49.986 38.6284 49.9859H43.239C43.7676 51.0058 44.9942 51.4683 46.0729 51.0322L46.091 51.0262C46.9295 50.6779 47.4773 49.8598 47.4773 48.9516C47.4773 48.65 47.416 48.3605 47.3067 48.0938C46.9583 47.2541 46.1402 46.7051 45.2308 46.7051ZM50.9599 42.8993C50.9599 42.0272 51.4632 41.2463 52.2417 40.8751V37.3036H51.6422V35.2962H53.24C53.5163 35.2962 53.7662 35.4091 53.9476 35.5893C54.0406 35.6822 54.1143 35.7925 54.1646 35.9139C54.2149 36.0353 54.2408 36.1655 54.2407 36.2969V40.9076C54.9807 41.2884 55.4516 42.062 55.4516 42.8993C55.4516 43.1949 55.3927 43.4796 55.287 43.7415L55.281 43.7583C54.8065 44.9019 53.4923 45.4473 52.3486 44.974C51.9378 44.8045 51.5865 44.5168 51.3393 44.1475C51.0921 43.7781 50.9601 43.3438 50.9599 42.8993ZM57.4938 32.2929H51.641V30.2915H57.4938C57.6859 29.9057 57.9849 29.5833 58.3552 29.3629C58.7255 29.1424 59.1514 29.0332 59.5821 29.0483C60.0128 29.0634 60.43 29.2021 60.784 29.4479C61.138 29.6937 61.4137 30.0362 61.5783 30.4345C61.7476 30.8447 61.7917 31.2958 61.7051 31.7311C61.6186 32.1663 61.4051 32.5662 61.0918 32.8804C60.6701 33.3008 60.0983 33.5387 59.5036 33.5387C58.6543 33.5387 57.8711 33.0546 57.4938 32.2929ZM59.3955 26.8149H51.641L51.6398 24.8135H58.3972V18.2748C57.9648 18.0285 57.6248 17.6429 57.4338 17.1816C57.321 16.9091 57.2631 16.6172 57.2632 16.3223C57.2634 16.0275 57.3216 15.7356 57.4347 15.4632C57.5477 15.1909 57.7132 14.9435 57.9219 14.7352C58.1305 14.5269 58.3782 14.3617 58.6507 14.2492C58.9162 14.1387 59.2057 14.0774 59.5084 14.0774C60.4166 14.0774 61.2371 14.6276 61.5843 15.4661C62.006 16.4848 61.6216 17.6705 60.6701 18.2448C60.5824 18.2976 60.4911 18.3457 60.3962 18.3865V25.8142C60.3962 26.3656 59.9469 26.8149 59.3955 26.8149ZM50.5418 17.3702V17.0206C49.4787 16.5016 48.9957 15.2427 49.4486 14.1447C49.7958 13.3073 50.6115 12.7559 51.5233 12.7559C52.4291 12.7559 53.24 13.3013 53.5908 14.129L53.5992 14.1459C54.0473 15.2294 53.58 16.4728 52.5432 17.0062V20.9801C52.5432 21.2564 52.4303 21.5063 52.2489 21.6877C52.0857 21.852 51.8703 21.9544 51.6398 21.9772V19.9458H51.6506C51.6506 18.9739 51.2338 18.0369 50.5418 17.3702ZM16.5927 11.1222C17.102 10.9107 17.5201 10.5095 17.7543 10.0121H21.3282V11.9847L23.3344 10.9215V9.01385C23.3344 8.73754 23.2227 8.48767 23.0413 8.30627C22.9485 8.21318 22.8382 8.13935 22.7168 8.08905C22.5954 8.03874 22.4652 8.01295 22.3337 8.01315H17.7243C17.4828 7.54464 17.0756 7.17463 16.5891 6.97281C15.4382 6.49709 14.1264 7.0533 13.6567 8.18974C13.3095 9.02586 13.5029 9.99532 14.1432 10.6356C14.7847 11.2759 15.7541 11.4705 16.5927 11.1222ZM26.3377 4.75999V9.32979L28.3391 8.26903V4.75999C29.0984 4.38278 29.5837 3.60673 29.5837 2.75019C29.5837 1.8468 29.0407 1.0251 28.1962 0.675518C27.6468 0.449072 27.0301 0.449072 26.4807 0.675518C25.6398 1.0251 25.0932 1.8432 25.0932 2.75019C25.0932 3.60553 25.5809 4.38518 26.3377 4.75999ZM31.8157 2.85831C31.8157 3.68842 31.6788 5.48919 31.5935 7.38126C32.0103 7.44973 32.4152 7.59029 32.784 7.80412L33.8171 8.35192V3.8566H40.3559C40.4544 4.02959 40.5793 4.19297 40.7199 4.33352C41.3602 4.97382 42.3284 5.16723 43.1658 4.82005C44.0055 4.47047 44.5533 3.65478 44.5533 2.74538C44.5533 1.83719 44.0043 1.01669 43.1658 0.669511C42.3248 0.322331 41.359 0.519347 40.7199 1.15724C40.5191 1.35882 40.3581 1.59642 40.2454 1.85761H32.8176C32.265 1.85761 31.8157 2.3069 31.8157 2.85831ZM40.1577 11.712H41.6089C41.6473 11.7913 41.6905 11.867 41.7374 11.9402C42.3212 12.8496 43.4781 13.2221 44.4872 12.8052C45.3233 12.458 45.8747 11.6423 45.8747 10.7305C45.8747 10.4266 45.8135 10.1347 45.7029 9.86798C45.3558 9.03427 44.5292 8.48407 43.6259 8.48407C42.7789 8.48407 42.0077 8.96339 41.6245 9.71061H37.6505C37.3742 9.71061 37.1243 9.82353 36.9429 10.0049L36.9405 10.0073L40.1577 11.712ZM10.8696 14.1447C10.9789 14.4102 11.0402 14.6997 11.0402 15.0024C11.0402 15.8746 10.538 16.6554 9.75838 17.0254V20.5993H10.359V22.6055H8.76009C8.48379 22.6055 8.23392 22.4926 8.05252 22.3112C7.95935 22.2187 7.88546 22.1087 7.83514 21.9874C7.78483 21.8661 7.75908 21.7361 7.7594 21.6048V16.9942C7.02059 16.6134 6.54847 15.8397 6.54847 15.0024C6.54847 13.7807 7.53835 12.7559 8.79373 12.7559C9.70312 12.7559 10.5212 13.3049 10.8696 14.1447ZM4.50744 25.6088H10.3602V27.6102H4.50744C4.26564 28.0951 3.85699 28.4764 3.35658 28.6842C2.51325 29.0302 1.5498 28.8379 0.908295 28.1964C0.70287 27.991 0.535887 27.7435 0.421762 27.4672C0.195917 26.9177 0.195917 26.3013 0.421762 25.7518C0.893879 24.6129 2.1961 24.0663 3.33856 24.5276L3.35537 24.5348C3.77223 24.7078 4.12422 24.9985 4.37169 25.3758L4.3837 25.3914C4.42815 25.461 4.46899 25.5331 4.50744 25.6088ZM2.60455 31.0868H10.3602L10.3614 33.0882H3.60284V39.627C3.66051 39.6594 3.71697 39.6954 3.76983 39.7315C4.37529 40.1567 4.73809 40.8355 4.73809 41.5779C4.73809 41.8806 4.67682 42.1713 4.5663 42.4368C4.21672 43.2766 3.40223 43.8244 2.49163 43.8244C1.58343 43.8244 0.762936 43.2742 0.415756 42.4356C-0.00470457 41.4181 0.378515 40.23 1.32996 39.657C1.41765 39.6041 1.50895 39.5573 1.60386 39.5152V32.0875C1.60386 31.8124 1.71678 31.5613 1.89698 31.3799C1.98984 31.2869 2.10014 31.2132 2.22156 31.1629C2.34298 31.1126 2.47313 31.0867 2.60455 31.0868ZM11.4582 40.6289V40.8799C12.507 41.3929 13.0103 42.6447 12.5514 43.7571C12.2043 44.5944 11.3898 45.1458 10.4768 45.1458C10.1728 45.1458 9.88092 45.0845 9.61423 44.974C8.78051 44.6268 8.23031 43.8003 8.23031 42.8969C8.23031 42.1353 8.61713 41.4313 9.24903 41.0169C9.3163 40.9724 9.38598 40.9316 9.45805 40.8955V36.9216C9.45805 36.6453 9.56978 36.3954 9.75118 36.214C9.91481 36.0498 10.1307 35.9478 10.3614 35.9257V38.0544H10.3506C10.3506 39.0263 10.7663 39.9633 11.4582 40.6289ZM34.6244 53.2391V49.2219L32.7732 50.2033C32.7238 50.2313 32.6737 50.2582 32.623 50.2838V53.2391C32.1389 53.4805 31.7581 53.8866 31.549 54.3899C31.4397 54.6566 31.3785 54.9461 31.3785 55.2489C31.3785 56.4802 32.3791 57.4941 33.6249 57.4941C34.8551 57.4941 35.8702 56.4934 35.8702 55.2489C35.8702 54.4019 35.3896 53.6187 34.6244 53.2391ZM29.1464 55.1407V50.1589L27.145 49.0981V54.1424H20.6075C19.8662 52.8414 18.1015 52.6324 17.0672 53.6655C16.754 53.9798 16.5406 54.3797 16.4541 54.8149C16.3675 55.2501 16.4115 55.7012 16.5807 56.1114C16.929 56.9511 17.7459 57.5001 18.6553 57.5001C19.5467 57.5001 20.3612 56.9691 20.718 56.1414H28.1457C28.422 56.1414 28.6719 56.0285 28.8533 55.8483C28.9464 55.7555 29.0202 55.6452 29.0705 55.5238C29.1208 55.4024 29.1466 55.2722 29.1464 55.1407ZM21.8412 46.2871H19.3533C18.9785 45.5194 18.1964 45.0233 17.3339 45.0233C16.8894 45.0234 16.4551 45.1555 16.0857 45.4027C15.7164 45.6499 15.4288 46.0012 15.2592 46.412C14.6513 47.88 15.7325 49.515 17.3363 49.515C18.1856 49.515 18.9532 49.0357 19.3377 48.2884H23.3128C23.5879 48.2884 23.839 48.1755 24.0192 47.9941C24.1372 47.8778 24.2239 47.7336 24.2715 47.5749L21.8412 46.2871Z" fill="white"/>
<path d="M32.7851 7.80401L49.7705 16.8079L49.9603 16.9172C50.9947 17.5611 51.6506 18.7264 51.6506 19.9457H51.6398L51.6422 38.0543H51.653C51.653 39.3866 50.8914 40.6131 49.7093 41.2222L49.7117 41.227L32.7731 50.2032C31.6896 50.8267 30.2972 50.8219 29.216 50.196L12.2306 41.1934L12.0408 41.0828C11.0065 40.4401 10.3506 39.2749 10.3506 38.0543H10.3614L10.359 19.9457H10.3482C10.3482 18.6134 11.1098 17.3869 12.2919 16.7778L12.2895 16.773L29.2281 7.798C30.3116 7.17332 31.704 7.17812 32.7851 7.80401Z" fill="white"/>
<path d="M31.7833 9.4894L48.9176 18.5713C49.1603 18.7119 49.3513 18.9089 49.4822 19.136L49.5099 19.1876C49.6288 19.4135 49.6925 19.6633 49.6925 19.912V38.0879C49.6949 38.3882 49.606 38.6729 49.4546 38.9132C49.3029 39.1534 49.0886 39.3478 48.8347 39.4754L31.7712 48.5177C31.5274 48.6583 31.2559 48.7232 30.988 48.722C30.7141 48.7183 30.4462 48.6451 30.2179 48.5105L13.0836 39.4286C12.8491 39.2932 12.6543 39.0985 12.519 38.864L12.4913 38.8123C12.3724 38.5865 12.3087 38.3366 12.3087 38.0879V19.912C12.3063 19.6117 12.3952 19.327 12.5466 19.0867C12.6968 18.8488 12.9106 18.653 13.1665 18.5245L30.23 9.48219C30.4738 9.34164 30.7453 9.27677 31.0132 9.27797C31.2871 9.28157 31.5538 9.35485 31.7833 9.4894Z" fill="white"/>
<path d="M31.8373 10.2727C37.1964 13.1967 42.7092 15.9946 48.1187 18.8417C48.729 19.1636 49.0762 19.7859 49.0774 20.431L49.081 37.5702C49.081 38.3054 48.6389 38.9385 48.0058 39.2172L31.8373 47.7273C31.5793 47.8632 31.2922 47.9341 31.0006 47.9341C30.709 47.9341 30.4219 47.8632 30.1639 47.7273C24.8048 44.8033 19.292 42.0054 13.8825 39.1583C13.2722 38.8376 12.925 38.2141 12.9238 37.5702L12.9202 20.431C12.9202 19.6946 13.3623 19.0615 13.9954 18.7828L30.1639 10.2727C30.7081 9.98679 31.3316 10.0072 31.8373 10.2727Z" fill="white"/>
<path d="M18.1519 33.8773V23.9941H21.0988L24.0804 28.0858V23.9941H27.0849V33.8773H24.1225L21.1552 29.5165V33.8773H18.1519ZM28.6839 33.8773V23.9941H35.5542V26.5048H31.6884V28.5723H34.7012V30.9064H31.6884V33.8773H28.6839ZM36.7375 26.6826V23.9941H43.8493V26.6826H42.0004V33.8773H38.7004V26.6826H36.7375Z" fill="#5470E6"/>
</g>
<defs>
<clipPath id="clip0_1_380">
<rect width="61.5073" height="57" fill="white" transform="translate(0.24633 0.5)"/>
</clipPath>
</defs>
</svg>
