<svg width="56" height="56" viewBox="0 0 56 56" fill="none" xmlns="http://www.w3.org/2000/svg">
<path d="M9.33342 9.33337C8.09574 9.33337 6.90875 9.82504 6.03358 10.7002C5.15841 11.5754 4.66675 12.7624 4.66675 14V39.6667C4.66675 40.9044 5.15841 42.0914 6.03358 42.9665C6.90875 43.8417 8.09574 44.3334 9.33342 44.3334V46.6667H14.0001V44.3334H39.6668V46.6667H44.3334V44.3334C45.5711 44.3334 46.7581 43.8417 47.6332 42.9665C48.5084 42.0914 49.0001 40.9044 49.0001 39.6667V37.3334H51.3334V32.6667H49.0001V21H51.3334V16.3334H49.0001V14C49.0001 12.7624 48.5084 11.5754 47.6332 10.7002C46.7581 9.82504 45.5711 9.33337 44.3334 9.33337H9.33342ZM9.33342 14H44.3334V39.6667H9.33342V14ZM31.5001 17.5C29.0247 17.5 26.6508 18.4834 24.9004 20.2337C23.1501 21.984 22.1667 24.358 22.1667 26.8334C22.1667 29.3087 23.1501 31.6827 24.9004 33.433C26.6508 35.1834 29.0247 36.1667 31.5001 36.1667C33.9754 36.1667 36.3494 35.1834 38.0997 33.433C39.8501 31.6827 40.8334 29.3087 40.8334 26.8334C40.8334 24.358 39.8501 21.984 38.0997 20.2337C36.3494 18.4834 33.9754 17.5 31.5001 17.5ZM11.6667 21V32.6667H16.3334V21H11.6667ZM31.5001 22.1667C32.7378 22.1667 33.9247 22.6584 34.7999 23.5335C35.6751 24.4087 36.1667 25.5957 36.1667 26.8334C36.1667 28.0711 35.6751 29.258 34.7999 30.1332C33.9247 31.0084 32.7378 31.5 31.5001 31.5C30.2624 31.5 29.0754 31.0084 28.2003 30.1332C27.3251 29.258 26.8334 28.0711 26.8334 26.8334C26.8334 25.5957 27.3251 24.4087 28.2003 23.5335C29.0754 22.6584 30.2624 22.1667 31.5001 22.1667Z" fill="white"/>
</svg>
