<svg width="24" height="20" viewBox="0 0 24 20" fill="none" xmlns="http://www.w3.org/2000/svg">
<path d="M0 2.32C0 1.93809 0.151714 1.57182 0.421766 1.30177C0.691819 1.03172 1.05809 0.880005 1.44 0.880005H22.56C22.9419 0.880005 23.3082 1.03172 23.5782 1.30177C23.8483 1.57182 24 1.93809 24 2.32C24 2.70192 23.8483 3.06819 23.5782 3.33824C23.3082 3.60829 22.9419 3.76 22.56 3.76H1.44C1.05809 3.76 0.691819 3.60829 0.421766 3.33824C0.151714 3.06819 0 2.70192 0 2.32ZM3.84 10C3.84 9.61809 3.99171 9.25182 4.26177 8.98177C4.53182 8.71172 4.89809 8.56 5.28 8.56H18.72C19.1019 8.56 19.4682 8.71172 19.7382 8.98177C20.0083 9.25182 20.16 9.61809 20.16 10C20.16 10.3819 20.0083 10.7482 19.7382 11.0182C19.4682 11.2883 19.1019 11.44 18.72 11.44H5.28C4.89809 11.44 4.53182 11.2883 4.26177 11.0182C3.99171 10.7482 3.84 10.3819 3.84 10ZM7.68 17.68C7.68 17.2981 7.83171 16.9318 8.10177 16.6618C8.37182 16.3917 8.73809 16.24 9.12 16.24H14.88C15.2619 16.24 15.6282 16.3917 15.8982 16.6618C16.1683 16.9318 16.32 17.2981 16.32 17.68C16.32 18.0619 16.1683 18.4282 15.8982 18.6982C15.6282 18.9683 15.2619 19.12 14.88 19.12H9.12C8.73809 19.12 8.37182 18.9683 8.10177 18.6982C7.83171 18.4282 7.68 18.0619 7.68 17.68Z" fill="url(#paint0_linear_27_314)"/>
<defs>
<linearGradient id="paint0_linear_27_314" x1="0" y1="10" x2="24" y2="10" gradientUnits="userSpaceOnUse">
<stop stop-color="#4776E6"/>
<stop offset="1" stop-color="#8E54E9"/>
</linearGradient>
</defs>
</svg>
