<svg width="14" height="14" viewBox="0 0 14 14" fill="none" xmlns="http://www.w3.org/2000/svg">
<path d="M7.37828 10.8648L7.32423 10.9189L7.26477 10.8648C4.6972 8.5351 2.9999 6.99456 2.9999 5.4324C2.9999 4.35132 3.81072 3.54051 4.8918 3.54051C5.72423 3.54051 6.53504 4.08105 6.82153 4.81618H7.82693C8.11342 4.08105 8.92423 3.54051 9.75666 3.54051C10.8377 3.54051 11.6486 4.35132 11.6486 5.4324C11.6486 6.99456 9.95126 8.5351 7.37828 10.8648ZM9.75666 2.45943C8.81612 2.45943 7.91342 2.89726 7.32423 3.58375C6.73504 2.89726 5.83234 2.45943 4.8918 2.45943C3.22693 2.45943 1.91882 3.76213 1.91882 5.4324C1.91882 7.47024 3.75666 9.14051 6.54045 11.6648L7.32423 12.3783L8.10801 11.6648C10.8918 9.14051 12.7296 7.47024 12.7296 5.4324C12.7296 3.76213 11.4215 2.45943 9.75666 2.45943Z" fill="url(#paint0_linear_27_329)"/>
<defs>
<linearGradient id="paint0_linear_27_329" x1="1.91882" y1="7.41889" x2="12.7296" y2="7.41889" gradientUnits="userSpaceOnUse">
<stop stop-color="#4776E6"/>
<stop offset="1" stop-color="#8E54E9"/>
</linearGradient>
</defs>
</svg>
