<svg xmlns="http://www.w3.org/2000/svg" width="12" height="12" viewBox="0 0 12 12" fill="none">
  <path d="M6.58333 8.34334H6V6.01001H5.41667M6 3.67668H6.00583M11.25 6.01001C11.25 6.69945 11.1142 7.38214 10.8504 8.0191C10.5865 8.65606 10.1998 9.23481 9.71231 9.72232C9.2248 10.2098 8.64605 10.5965 8.00909 10.8604C7.37213 11.1242 6.68944 11.26 6 11.26C5.31056 11.26 4.62787 11.1242 3.99091 10.8604C3.35395 10.5965 2.7752 10.2098 2.28769 9.72232C1.80018 9.23481 1.41347 8.65606 1.14963 8.0191C0.885795 7.38214 0.75 6.69945 0.75 6.01001C0.75 4.61762 1.30312 3.28227 2.28769 2.2977C3.27226 1.31313 4.60761 0.76001 6 0.76001C7.39239 0.76001 8.72774 1.31313 9.71231 2.2977C10.6969 3.28227 11.25 4.61762 11.25 6.01001Z" stroke="white" stroke-opacity="0.7" stroke-width="1.16667" stroke-linecap="round" stroke-linejoin="round"/>
</svg>