<svg xmlns="http://www.w3.org/2000/svg" width="24" height="24" viewBox="0 0 24 24" fill="none">
  <path d="M14.8536 16.0864C14.5386 16.4014 14 16.1783 14 15.7328V13.4399C14 13.1638 13.7762 12.9399 13.5 12.9399H5.57264C5.29941 12.9399 5.07677 12.7206 5.0727 12.4474L5.05762 11.4374C5.05346 11.1584 5.27851 10.9299 5.55757 10.9299H13.5C13.7762 10.9299 14 10.7061 14 10.4299V8.14705C14 7.7016 14.5386 7.47851 14.8536 7.79349L18.6465 11.5864C18.8418 11.7816 18.8418 12.0982 18.6465 12.2935L14.8536 16.0864Z" fill="url(#paint0_linear_56_1276)"/>
  <defs>
    <linearGradient id="paint0_linear_56_1276" x1="5.05005" y1="11.9399" x2="19" y2="11.9399" gradientUnits="userSpaceOnUse">
      <stop stop-color="#4776E6"/>
      <stop offset="1" stop-color="#8E54E9"/>
    </linearGradient>
  </defs>
</svg>