<svg width="40" height="40" viewBox="0 0 40 40" fill="none" xmlns="http://www.w3.org/2000/svg">
<path fill-rule="evenodd" clip-rule="evenodd" d="M12.2417 6.69503C17.3981 6.12347 22.6019 6.12347 27.7583 6.69503C30.6133 7.01503 32.9167 9.26336 33.2517 12.1284C33.8633 17.3583 33.8633 22.6417 33.2517 27.8717C32.9167 30.7367 30.6133 32.985 27.7583 33.305C22.6019 33.8767 17.3981 33.8767 12.2417 33.305C9.38667 32.985 7.08334 30.7367 6.74834 27.8717C6.1367 22.6423 6.1367 17.3594 6.74834 12.13C6.91778 10.7381 7.5523 9.44427 8.54906 8.4581C9.54582 7.47193 10.8464 6.85127 12.24 6.6967M20 11.6784C20.3315 11.6784 20.6495 11.8101 20.8839 12.0445C21.1183 12.2789 21.25 12.5968 21.25 12.9284V18.75H27.0717C27.4032 18.75 27.7211 18.8817 27.9556 19.1161C28.19 19.3506 28.3217 19.6685 28.3217 20C28.3217 20.3315 28.19 20.6495 27.9556 20.8839C27.7211 21.1183 27.4032 21.25 27.0717 21.25H21.25V27.0717C21.25 27.4032 21.1183 27.7212 20.8839 27.9556C20.6495 28.19 20.3315 28.3217 20 28.3217C19.6685 28.3217 19.3505 28.19 19.1161 27.9556C18.8817 27.7212 18.75 27.4032 18.75 27.0717V21.25H12.9283C12.5968 21.25 12.2789 21.1183 12.0445 20.8839C11.81 20.6495 11.6783 20.3315 11.6783 20C11.6783 19.6685 11.81 19.3506 12.0445 19.1161C12.2789 18.8817 12.5968 18.75 12.9283 18.75H18.75V12.9284C18.75 12.5968 18.8817 12.2789 19.1161 12.0445C19.3505 11.8101 19.6685 11.6784 20 11.6784Z" fill="url(#paint0_linear_1_430)"/>
<defs>
<linearGradient id="paint0_linear_1_430" x1="6.28961" y1="20.0001" x2="33.7104" y2="20.0001" gradientUnits="userSpaceOnUse">
<stop stop-color="#4776E6"/>
<stop offset="1" stop-color="#8E54E9"/>
</linearGradient>
</defs>
</svg>
