<svg xmlns="http://www.w3.org/2000/svg" width="17" height="17" viewBox="0 0 17 17" fill="none">
  <g clip-path="url(#clip0_27_359)">
    <path fill-rule="evenodd" clip-rule="evenodd" d="M14.8568 4.5017C14.8854 4.32806 14.8669 4.14992 14.8033 3.98584C14.7397 3.82176 14.6332 3.67775 14.495 3.56881C14.3568 3.45987 14.1919 3.38999 14.0175 3.36645C13.8431 3.34291 13.6655 3.36657 13.5034 3.43497L2.2849 8.15853C1.50289 8.48787 1.46287 9.6189 2.2849 9.96005C3.09887 10.2995 3.92471 10.6098 4.76083 10.8903C5.5271 11.1436 6.36291 11.3778 7.03274 11.444C7.21578 11.6632 7.44605 11.8744 7.68092 12.0673C8.03978 12.3625 8.47146 12.6663 8.91757 12.9575C9.81112 13.5414 10.8024 14.0997 11.4703 14.4632C12.2687 14.8962 13.2245 14.3976 13.3676 13.527L14.8568 4.5017ZM3.54255 9.05273L13.4647 4.875L12.0751 13.2987C11.4198 12.9425 10.4757 12.4091 9.63464 11.8593C9.247 11.6104 8.87275 11.3413 8.51345 11.053C8.4174 10.9746 8.32419 10.8927 8.23397 10.8077L10.8326 8.2097C10.9557 8.08669 11.0249 7.91981 11.0249 7.74578C11.025 7.57175 10.9559 7.40482 10.8329 7.28172C10.7099 7.15862 10.543 7.08943 10.369 7.08936C10.195 7.0893 10.028 7.15838 9.90493 7.28139L7.05964 10.1267C6.5781 10.065 5.90761 9.88657 5.17152 9.64383C4.62352 9.46128 4.08055 9.26395 3.5432 9.05207L3.54255 9.05273Z" fill="url(#paint0_linear_27_359)"/>
  </g>
  <defs>
    <linearGradient id="paint0_linear_27_359" x1="1.68329" y1="8.9898" x2="14.8699" y2="8.9898" gradientUnits="userSpaceOnUse">
      <stop stop-color="#4776E6"/>
      <stop offset="1" stop-color="#8E54E9"/>
    </linearGradient>
    <clipPath id="clip0_27_359">
      <rect width="15.7452" height="15.7452" fill="white" transform="translate(0.528656 0.528656)"/>
    </clipPath>
  </defs>
</svg>