<svg width="17" height="17" viewBox="0 0 17 17" fill="none" xmlns="http://www.w3.org/2000/svg">
<g clip-path="url(#clip0_27_385)">
<path fill-rule="evenodd" clip-rule="evenodd" d="M6.40466 0.83906C4.8827 1.28176 3.52964 2.17319 2.52222 3.3969C1.51481 4.62061 0.899873 6.1197 0.757751 7.69835H4.35666C4.5653 5.29614 5.26179 2.96174 6.40354 0.837936L6.40466 0.83906ZM4.35666 9.10418H0.757751C0.899576 10.6829 1.51425 12.1821 2.52146 13.406C3.52868 14.63 4.88162 15.5216 6.40354 15.9646C5.26179 13.8408 4.5653 11.5064 4.35666 9.10418ZM8.20749 16.2649C6.84305 14.1027 6.00698 11.6496 5.76698 9.10418H11.4296C11.1896 11.6496 10.3536 14.1027 8.98913 16.2649C8.72874 16.2775 8.46788 16.2775 8.20749 16.2649ZM10.7942 15.9635C12.316 15.5206 13.6688 14.6291 14.676 13.4054C15.6832 12.1817 16.298 10.6827 16.44 9.10418H12.8411C12.6325 11.5064 11.936 13.8408 10.7942 15.9646V15.9635ZM12.8411 7.69835H16.44C16.2982 6.11964 15.6835 4.6204 14.6763 3.39649C13.6691 2.17258 12.3161 1.2809 10.7942 0.837936C11.936 2.96173 12.6325 5.29614 12.8411 7.69835ZM8.20749 0.537652C8.46826 0.524884 8.72949 0.524884 8.99025 0.537652C10.3543 2.69993 11.19 5.15304 11.4296 7.69835H5.76811C6.01216 5.13751 6.85003 2.68238 8.20749 0.537652Z" fill="url(#paint0_linear_27_385)"/>
</g>
<defs>
<linearGradient id="paint0_linear_27_385" x1="0.757751" y1="8.40122" x2="16.44" y2="8.40122" gradientUnits="userSpaceOnUse">
<stop stop-color="#4776E6"/>
<stop offset="1" stop-color="#8E54E9"/>
</linearGradient>
<clipPath id="clip0_27_385">
<rect width="15.7452" height="15.7452" fill="white" transform="translate(0.726105 0.528656)"/>
</clipPath>
</defs>
</svg>
