<svg xmlns="http://www.w3.org/2000/svg" width="16" height="17" viewBox="0 0 16 17" fill="none">
  <g clip-path="url(#clip0_27_371)">
    <path fill-rule="evenodd" clip-rule="evenodd" d="M7.99999 3.15286C8.56092 3.15286 9.13627 3.1673 9.69392 3.19091L10.3526 3.2224L10.9831 3.2598L11.5735 3.29982L12.1128 3.34181C12.698 3.3866 13.2487 3.63634 13.668 4.04709C14.0872 4.45783 14.3482 5.00328 14.405 5.58747L14.4313 5.86629L14.4805 6.4633C14.5264 7.08195 14.5605 7.75637 14.5605 8.40127C14.5605 9.04617 14.5264 9.72059 14.4805 10.3392L14.4313 10.9363C14.4227 11.032 14.4142 11.1245 14.405 11.2151C14.3482 11.7994 14.0871 12.3449 13.6677 12.7557C13.2483 13.1664 12.6975 13.4161 12.1121 13.4607L11.5742 13.5021L10.9837 13.5427L10.3526 13.5801L9.69392 13.6116C9.1296 13.6361 8.56484 13.6488 7.99999 13.6497C7.43515 13.6488 6.87038 13.6361 6.30607 13.6116L5.64739 13.5801L5.01693 13.5427L4.42648 13.5021L3.88721 13.4607C3.30198 13.4159 2.75129 13.1662 2.33202 12.7555C1.91275 12.3447 1.65176 11.7993 1.59497 11.2151L1.56873 10.9363L1.51952 10.3392C1.46936 9.69444 1.44266 9.04802 1.43948 8.40127C1.43948 7.75637 1.4736 7.08195 1.51952 6.4633L1.56873 5.86629C1.57725 5.77051 1.58578 5.678 1.59497 5.58747C1.65174 5.00338 1.91264 4.45802 2.33177 4.04729C2.75091 3.63655 3.30144 3.38675 3.88655 3.34181L4.42517 3.29982L5.01562 3.2598L5.64674 3.2224L6.30541 3.19091C6.86995 3.1664 7.43493 3.15371 7.99999 3.15286ZM6.68789 6.81035V9.99219C6.68789 10.2953 7.01592 10.4842 7.27834 10.3333L10.0338 8.74242C10.0937 8.7079 10.1435 8.6582 10.1781 8.5983C10.2128 8.53841 10.231 8.47045 10.231 8.40127C10.231 8.33209 10.2128 8.26413 10.1781 8.20424C10.1435 8.14434 10.0937 8.09464 10.0338 8.06012L7.27834 6.46986C7.21848 6.4353 7.15058 6.41711 7.08146 6.41712C7.01234 6.41713 6.94444 6.43534 6.8846 6.46992C6.82475 6.5045 6.77506 6.55422 6.74053 6.6141C6.706 6.67397 6.68785 6.74188 6.68789 6.811V6.81035Z" fill="url(#paint0_linear_27_371)"/>
  </g>
  <defs>
    <linearGradient id="paint0_linear_27_371" x1="1.43948" y1="8.40127" x2="14.5605" y2="8.40127" gradientUnits="userSpaceOnUse">
      <stop stop-color="#4776E6"/>
      <stop offset="1" stop-color="#8E54E9"/>
    </linearGradient>
    <clipPath id="clip0_27_371">
      <rect width="15.7452" height="15.7452" fill="white" transform="translate(0.12738 0.528656)"/>
    </clipPath>
  </defs>
</svg>